/* XPM */
static char *_7ddac00ea6941938861db60efea141dYb9edLgn1x9rmXvT[] = {
/* columns rows colors chars-per-pixel */
"50 50 232 2 ",
"   c #45010A",
".  c #4B010B",
"X  c #53010D",
"o  c #5A020F",
"O  c #5A0F14",
"+  c #640612",
"@  c #760517",
"#  c #522C08",
"$  c #443806",
"%  c #582B18",
"&  c #533513",
"*  c #652A0B",
"=  c #683D16",
"-  c #70330C",
";  c #792F31",
":  c #474301",
">  c #4A4402",
",  c #4D4A04",
"<  c #514D07",
"1  c #5B560B",
"2  c #56550A",
"3  c #594911",
"4  c #575815",
"5  c #4B4818",
"6  c #61580C",
"7  c #605C12",
"8  c #7E5905",
"9  c #536201",
"0  c #636F01",
"q  c #6B6A15",
"w  c #696719",
"e  c #72691A",
"r  c #76761D",
"t  c #747D01",
"y  c #554F2B",
"u  c #774426",
"i  c #6A6723",
"p  c #7B7B26",
"a  c #6D693C",
"s  c #736D3E",
"d  c #7B763C",
"f  c #787869",
"g  c #840619",
"h  c #8D071C",
"j  c #99081E",
"k  c #9A1E19",
"l  c #A40A1E",
"z  c #A90C1E",
"x  c #AB151D",
"c  c #A6191D",
"v  c #B5181D",
"b  c #893B0D",
"n  c #8C2714",
"m  c #AA271C",
"M  c #B9281B",
"N  c #BD3E16",
"B  c #BD311B",
"V  c #B63319",
"C  c #A53116",
"Z  c #9E0C21",
"A  c #A50A21",
"S  c #AC0A23",
"D  c #B80B26",
"F  c #B61323",
"G  c #A61B32",
"H  c #BC2621",
"J  c #CA2D1E",
"K  c #C2271D",
"L  c #C2301C",
"P  c #CC3E19",
"I  c #C63B1A",
"U  c #D03A1B",
"Y  c #C70C2B",
"T  c #D60D2F",
"R  c #D80E2E",
"E  c #C61925",
"W  c #D61A29",
"Q  c #D7192A",
"!  c #DC0D30",
"~  c #E7172F",
"^  c #E40E32",
"/  c #EE1234",
"(  c #F21135",
")  c #FA1038",
"_  c #F81037",
"`  c #F30F36",
"'  c #C72623",
"]  c #D32325",
"[  c #D92029",
"{  c #D72128",
"}  c #CC3B21",
"|  c #915412",
" . c #BB5B0E",
".. c #AE4911",
"X. c #AA4412",
"o. c #BD4B12",
"O. c #B94514",
"+. c #BB5110",
"@. c #A24B0E",
"#. c #94731D",
"$. c #BA630D",
"%. c #A07007",
"&. c #B97807",
"*. c #AB6A08",
"=. c #AC4336",
"-. c #807F3E",
";. c #94752F",
":. c #B1742B",
">. c #B07E3D",
",. c #AC6A2D",
"<. c #C24B14",
"1. c #C94817",
"2. c #D34D17",
"3. c #D84A18",
"4. c #C55413",
"5. c #CB5D11",
"6. c #CA5713",
"7. c #D25B13",
"8. c #DB5B14",
"9. c #D55415",
"0. c #C15B0F",
"q. c #E35D15",
"w. c #CC690E",
"e. c #C5670E",
"r. c #D56D0F",
"t. c #C5730A",
"y. c #C9790A",
"u. c #D97A0D",
"i. c #CB6313",
"p. c #D46611",
"a. c #DC6C11",
"s. c #DB6312",
"d. c #DF7210",
"f. c #CC7014",
"g. c #E67C0F",
"h. c #E36B12",
"j. c #EB6C14",
"k. c #E26513",
"l. c #E67311",
"z. c #ED7313",
"x. c #EB7D10",
"c. c #F47B12",
"v. c #DD7437",
"b. c #DD7438",
"n. c #D97838",
"m. c #CA6F2C",
"M. c #E47B39",
"N. c #E97F38",
"B. c #E67937",
"V. c #824E4F",
"C. c #867C44",
"Z. c #8F6059",
"A. c #D14943",
"S. c #CC7A5B",
"D. c #E07C40",
"F. c #7F8321",
"G. c #838406",
"H. c #989203",
"J. c #938902",
"K. c #BA8906",
"L. c #A39302",
"P. c #A49B00",
"I. c #AC9A00",
"U. c #B29201",
"Y. c #B49A00",
"T. c #B99F00",
"R. c #A78B19",
"E. c #AD8E0A",
"W. c #ABA300",
"Q. c #B4AC00",
"!. c #B9A500",
"~. c #BDB500",
"^. c #828722",
"/. c #B79B29",
"(. c #AB833C",
"). c #B78637",
"_. c #C98407",
"`. c #C39503",
"'. c #D59406",
"]. c #CF8B1C",
"[. c #E9870D",
"{. c #F4870F",
"}. c #E6940A",
"|. c #F88311",
" X c #C1AB01",
".X c #CBAC01",
"XX c #C5A400",
"oX c #DAAB03",
"OX c #CBB700",
"+X c #C7B700",
"@X c #D6BB00",
"#X c #D8B701",
"$X c #EAA807",
"%X c #E2BE01",
"&X c #CF8F34",
"*X c #ED853B",
"=X c #EF8839",
"-X c #E4823C",
";X c #F68334",
":X c #FF8432",
">X c #FF8D36",
",X c #F38C3A",
"<X c #FD8C3A",
"1X c #F3843A",
"2X c #FF9037",
"3X c #F6913A",
"4X c #FC943B",
"5X c #FF993B",
"6X c #EE963D",
"7X c #939546",
"8X c #979A51",
"9X c #B28646",
"0X c #B7845C",
"qX c #90856C",
"wX c #DC9447",
"eX c #CE8E4D",
"rX c #EF8941",
"tX c #F48E42",
"yX c #EA9A47",
"uX c #FE9443",
"iX c #FC9B44",
"pX c #F39A4B",
"aX c #F59545",
"sX c #E69554",
"dX c #F59A57",
"fX c #CBA64A",
"gX c #FCA04A",
"hX c #F7A04C",
"jX c #E7A354",
"kX c #F5A253",
"lX c #FBA450",
"zX c #EDA568",
/* pixels */
"5X5X5X5X5X5X5X5X5X5X5X,XM.v.M.,X4X5X5X5X5X5X5X5X5X5X5X5X5X5X5X5X5X5X5X5X5X5X5X5X5X5X5X5X5X5X5X5X5X5X",
"5X5X5X5X5X5X5X5X5X5X5X5X,XM.v.b.,X5X5X5X5X5X5X5X5X5X5X5X5X5X5X5X5X5X5X5X5X5X5X5X5X5X5X5X5X5X5X5X5X5X",
"5X5X5X5X5X5X5X5X5X5X5X5X5X,X=X,X4X5X5X5X5X5X5X5X5X5X5X5X5X5X5X5X5X5X5X5X5X5X5X5X5X5X5X5X5X5X5X5X5X5X",
"5X5X5X5X5X5X5X5X5X5X5X5X5X5X5X5X5X5X5X5X5X5X5X5X5X5X5X5X5X5X5X5X5X5X5X5X5X5X5X5X5X5X5X5X5X5X5X5X5X5X",
"5X5X5X5X5X5X5X5X5X5X5X5X5X5X5X5X5X5X5X5X5X5X5X5X5X5X5X5X5X5X5X5X5X5X5X5X5X5X5X5X5X5X5X5X5X5X5X5X5X5X",
"5X5X5X5X5X5X5X5X5X5X5X5X5X5X5X5X5X5X5X5X5X5X5X5X5X5X5X5X5X5X5X5X5X5X5X5X5X5X5X5X5X5X2X>X>X>X2X5X5X5X",
"5X5X5X5X5X5X5X5X5X5X5X5X5X5X5X5X5X5X5X5X5X5X5X5X5X5X5X5X5X5X5X5X5X5X5X5X5X5X5X5X5X2X:X:X:X:X>X5X5X5X",
"5X5X5X5X5X>X>X>X>X>X>X2X5X5X5X5X5X5X5X5X5X5X5X5X5X5X5X5X5X5X5X5X5X5X5X5X5X5X5X5X>X<XuXuXuXuX,XN.3X5X",
"5X5X5X5X4X:X:X:X:X:X<X<X,X5X5X5X5X5X5X5X5X5X5X5X5X5X5X5X5X5X5X5X5X5X5X5X5X5X5X5X;X1XtXtXtXtX*XN.3X5X",
"5X5X5XiXuX:X:X:X:X<XiX*XM.3X5X5X5X5X5X5X5X5X5X5X5X5X5X5X5X5X5X5X5X5X5X5X5X5X5X5XN.v.b.b.b.b.*X5X5X5X",
"5X5X5X,X*X<X4X4X<XuXiX*XM.3X5X5X5X5X5X5X5X5X5X5X5X5X5X5X5X5X5X5X5X5X5X5X5X5X5X5X,X=X=X=X=X=X,X5X5X5X",
"5X5X5X=XM.tXaXaXaXaXsX(.7X7Xd -.8XC.a a s s C.6X5X5XeXqXiX5X5X5X5X5X5X5X5X5X5X5X5X5X5X5X5X5X5X5X5X5X",
"5X5X5X4X,XM.M.M.M.n.e ^.F.2 q r < $ $ : 6 #.#.pXgXeX= & wX5X5X5XiXsXd 9XsXiXiX5X5X5X5X5X5X5X5X5X5X5X",
"5X5X5X5X4X=X*X*X-Xe F.r 1 r q < : : 1 :.yXpX;.: , 3 & $ 9XiXwX#.wXaXrX=X,X5X5X5X5X5X5X5X5X5X5X5X5X5X",
"5X5X5X5X5X5X5X5X:.i ^.7 r r < > , 2 i sXpXeXV.# $ 3 % % ; u = Z.kX,Xb.b.M.3X5X5X5X5X5X5X5X5X5X5X5X5X",
"5X5X5X5X5X5X5X5XqXp q q p 1 > , 4 y ; ; O .       o h S S S S l c =.S.sXpX5X5X5X5X5X5X5X5X5X5X5X5X5X",
"5X5X5X5X5X5X5XiXy w 2 r 7 > 5 5 O o X .   . o o @ D T ! ! ! ! ! R Y F x m v.4X5X5X5X5X5X5X5X5X5X5X5X",
"5X5X5X5X5X5X5X5Xy 4 w w :.>.; @ + o X X + @ g j D Y ^ ` ) ) ) ) ) ) ( Q E c m.iX5X5X5X5X5X5X5X5X5X5X",
"5X5X5X5X5X5X5X5Xf 4 i 9X5XiXG g @ @ + @ g h A D Y Y ! / _ ) ) ) ) ) _ ~ W E m tX5X5X5X5X5X5X5X5X5X5X",
"5X5X5X5X5X5X5X5XqX(.kX5X5XdXF Z j h g h j S Y T T T ! ^ / ( / / / / / ~ W H k ,.5X5X5X5X5X5X5X5X5X5X",
"5X5X5X5X5X5X5X5XiX5X5X5X5XA.E F A j j j A D Y Q Q W W W W W [ [ { { { ] ' m n * zX5X5X5X5X5X5X5X5X5X",
"5X5X5X5X5X5X5X5X5X5X5X5XdX} ' ' F A l z S F E ] ' J J J L L L B B B B B V C n * 0X5X5X5X5X5X5X5X5X5X",
"5X5X5X5X5X5X5X5X5X5X5X5Xn.1.I H x l z v v K U U P P P 1.I I I N N N N N O.X.b * ,.5X5X5X5X5X5X5X5X5X",
"5X5X5X5X5X5X5X5X5X5X5XiXi.4.1.B x x M M I 1.3.3.3.2.2.2.2.1.1.<.<.<.o.o.o...b * | 5X5X5X5X5X5X5X5X5X",
"5X5X5X5X5X5X5X5X5X5X5X5Xf.5.<.V m M 1.2.9.8.q.q.q.8.8.8.7.9.6.6.4.4.o.o.o...b * ,.iX5X5X5X5X5X5X5X5X",
"5X5X5X5X5X5X5X5X5X5X5X5X].e.4.O.N 6.h.l.z.z.j.j.j.k.k.s.8.7.7.6.4.<.o.o.O.X.b # eX5X5X5X5X5X5X5X5X5X",
"5X5X5X5X5X5X5X5X5X5X5X5XiXy.y.w.5.p.g.{.{.|.c.z.j.h.h.s.s.7.7.6.6.4.+.+.+.@.- # pX5X5X5X5X5X5X5X5X5X",
"5X5X5X5X5X5X5X5X5X5X5X5X5X&XK._.y.u.g.g.{.{.|.c.z.l.h.a.a.p.p.i.5.0.0. . .@.- :.iX5X5X5X5X5X5X5X5X5X",
"5X5X5X5X5X5X5X5X5X5X5X5X5XkXE.U.`.`.'.'.}.[.{.{.{.x.l.d.a.r.r.w.w.e.e.$.$.| | 3X5X5X5X5X5X5X5X5X5X5X",
"5X5X5X2X>X>X2X5X5X5X5X5X5X5XfXL.I.T.XX.XoXoX$X$X$X}.}.[.u.u.u.y.t.t.t.&.*.8 m.iX5X5X5X5X5X5X5X5X5X5X",
"5X5X5X>X:X:X>X5X5X5X5X5X5X5XlX/.L.I.!. X.XOX#X%X#X#XoXoX'.'._._._.y.&.&.%.,.-X5X5X5X5X5X5X5X5X5X5X5X",
"5X5XiX<X:X:X;XN.3X5X5X5X5X5X5XgX/.L.P.W.!. XOX@X@X@XOX.X.XXXXX`.K.K.K.K.&XD.M.N.3X5X5X5X5X5X5X5X5X5X",
"5X4XtX<X<X<XN.b.,X5X5X5X5X5X5X2X2X4XfXH.W.Q.~.+XOX+X X X!.!.!.Y.Y.U.].iX4X*XM.N.3X5X5X5X5X5X5X5X5X5X",
"5X,Xb.tXiXiXrXb.,X5X5X5X5X5X2X:X:X:X:XpXeXG.H.Q.~.~.Q.W.W.P.H.J.R.jX5X5X5X5X5X5X5X5X5X5X5X5X5X5X5X5X",
"5X4X,X*X*X*X*X,X3X5X5X5X5XiX2X:X:X:X:X:X:X:XsX).R.H.G.t 0 9 e jX5X5X5X5X5X5X5X5X5X5X5X5X5X5X5X5X5X5X",
"5X5X5X=XM.M.=X5X5X5X5X5X5XuX<X:X:X:X:X:X:X:XN.b.aXiXhXkXgX5X5X5X5X5X5X5X5X5X5X5X5X5X5X5X5X5X5X5X5X5X",
"5X5X5X4X3X3X4X5X5X5X5X5X3XM.*XuXuXuXuXuXuXuX*Xb.,X5X5X5X5X5X5X5X5X5X5X5X5X5X5X5X5X5X5X5X5X5X5X5X5X5X",
"5X5X5X5X5X5X5X5X5X5X5X5X4X=X*XrXrXrXrXrXrXrX*X=X3X5X5X5X5X5X5X>X>X>X>X5X5X5X5X5X5X5X5X5X5X,X=X,X4X5X",
"5X5X5X5X5X5X5X5X5X5X5X5X5X5X,Xb.b.b.b.b.b.b.=X5X5X5X5X5X5X5X>X:X:X:X:X>X5X5X5X5X5X5X5X5X3XM.b.b.,X5X",
"5X5X5X5X5X5X5X5X5X5X5X5X5X5X4X,X,X,X,X,X,X,X3X5X5X5X5X5X5X>X<XuXuXuXuX=X*X4X5X5X5X5X5X5X5X,X,X,X4X5X",
"5X5X5X5X5X5X5X5X5X5X5X5X5X5X5X5X5X5X5X5X5X5X5X5X5X5X5X5X5X;X1XtXtXtXtX*X*X4X5X5X5X5X5X5X5X5X5X5X5X5X",
"5X5X5X5X5X5X5X5X5X5X5X5X5X5X5X5X5X5X5X5X5X5X5X5X5X5X5X5X3XB.v.b.b.b.b.=X5X5X5X5X5X5X5X5X5X5X5X5X5X5X",
"5X5X5X,X*X*X,X5X5X5X5X5X5X5X5X5X5X5X5X5X5X5X5X5X5X5X5X5X5X,X=X=X=X=X=X3X5X5X5X5X5X5X5X5X5X5X5X5X5X5X",
"5X5X5X=XM.M.=X5X5X5X5X5X5X5X5X5X5X5X5X5X5X5X5X5X5X5X5X5X5X5X5X5X5X5X5X5X5X5X5X5X5X5X5X5X5X5X5X5X5X5X",
"5X5X5X4X3X3X4X5X5X5X5X5X5X5X5X5X5X5X5X5X5X5X5X5X5X5X5X5X5X5X5X5X5X5X5X5X5X5X5X5X5X5X5X5X5X5X5X5X5X5X",
"5X5X5X5X5X5X5X5X5X5X5X5X5X5X5X5X5X5X5X5X5X5X5X5X5X5X5X5X5X5X5X5X5X5X5X5X5X5X5X5X5X5X5X5X5X5X5X5X5X5X",
"5X5X5X5X5X5X5X5X5X5X5X5X5X5X5X5X5X5X5X5X5X5X5X5X5X5X5X5X5X5X5X5X5X5X5X5X5X5X5X5X5X5X5X5X5X5X5X5X5X5X",
"5X5X5X5X5X5X5X5X5X5X5X5X5X5X5X5X5X5X5X5X5X5X5X5X5X5X5X5X5X5X5X5X5X5X5X5X5X5X5X5X5X5X5X5X5X5X5X5X5X5X",
"5X5X5X5X5X5X5X5X5X5X5X5X5X5X5X5X5X5X5X5X5X5X5X5X5X5X5X5X5X5X5X5X5X5X5X5X5X5X5X5X5X5X5X5X5X5X5X5X5X5X",
"5X5X5X5X5X5X5X5X5X5X5X5X5X5X5X5X5X5X5X5X5X5X5X5X5X5X5X5X5X5X5X5X5X5X5X5X5X5X5X5X5X5X5X5X5X5X5X5X5X5X"
};
