/* XPM */
static char *_79c9407a0a74ceac6146cdd465ed770afohvHRFz9GLxh7f[] = {
/* columns rows colors chars-per-pixel */
"50 50 233 2 ",
"   c #040101",
".  c #0B0402",
"X  c #0B0809",
"o  c #160401",
"O  c #1E0601",
"+  c #130A05",
"@  c #170A08",
"#  c #1A100C",
"$  c #080C18",
"%  c #040611",
"&  c #1B1516",
"*  c #290700",
"=  c #290A01",
"-  c #3A0B02",
";  c #23130A",
":  c #2C160E",
">  c #2E1A0B",
",  c #231307",
"<  c #3B1A09",
"1  c #38160B",
"2  c #221413",
"3  c #2D1912",
"4  c #281A1A",
"5  c #331B12",
"6  c #341F1B",
"7  c #3D240F",
"8  c #3A241A",
"9  c #0C142A",
"0  c #200E26",
"q  c #13203F",
"w  c #2B212E",
"e  c #3C2524",
"r  c #392725",
"t  c #282530",
"y  c #4E0C01",
"u  c #450B02",
"i  c #5C0D00",
"p  c #550E00",
"a  c #441106",
"s  c #461B0A",
"d  c #481708",
"f  c #571506",
"g  c #5B1E14",
"h  c #630D01",
"j  c #680E00",
"k  c #750C01",
"l  c #621201",
"z  c #6A1303",
"x  c #6A1802",
"c  c #741200",
"v  c #7D1300",
"b  c #761D01",
"n  c #48230D",
"m  c #4C2D11",
"M  c #432713",
"N  c #572A12",
"B  c #593517",
"V  c #55230C",
"C  c #623A16",
"Z  c #6A3D19",
"A  c #653916",
"S  c #77310E",
"D  c #472C29",
"F  c #4E3131",
"G  c #583230",
"H  c #742521",
"J  c #6B4119",
"K  c #74451B",
"L  c #7B471C",
"P  c #684228",
"I  c #0E1C55",
"U  c #172449",
"Y  c #182958",
"T  c #26265D",
"R  c #3C334D",
"E  c #152A67",
"W  c #162B79",
"Q  c #3F396C",
"!  c #493468",
"~  c #643445",
"^  c #59484A",
"/  c #755A59",
"(  c #684D4E",
")  c #776154",
"_  c #7A6E6E",
"`  c #970801",
"'  c #811500",
"]  c #891700",
"[  c #8E1A01",
"{  c #831A02",
"}  c #931A02",
"|  c #9B1A00",
" . c #961F08",
".. c #850900",
"X. c #AC1D00",
"o. c #A61900",
"O. c #B20F01",
"+. c #862A06",
"@. c #982003",
"#. c #853718",
"$. c #AB2403",
"%. c #B22101",
"&. c #B92902",
"*. c #BB3C05",
"=. c #A33114",
"-. c #853224",
";. c #CC1000",
":. c #C42C00",
">. c #D43400",
",. c #DC3B02",
"<. c #D43A02",
"1. c #CA380D",
"2. c #E83E00",
"3. c #834C1D",
"4. c #864318",
"5. c #954C15",
"6. c #884C22",
"7. c #964E26",
"8. c #8D5522",
"9. c #875122",
"0. c #915521",
"q. c #9C5A25",
"w. c #825134",
"e. c #A6522C",
"r. c #A46226",
"t. c #AB6628",
"y. c #B46C29",
"u. c #B3662B",
"i. c #BD712C",
"p. c #B76934",
"a. c #AF6730",
"s. c #A94D0D",
"d. c #CB4308",
"f. c #D84909",
"g. c #DB5714",
"h. c #CC4610",
"j. c #E84906",
"k. c #E9560C",
"l. c #E1571B",
"z. c #F65E0C",
"x. c #EA6717",
"c. c #F46411",
"v. c #F56B13",
"b. c #FA7B1B",
"n. c #F97317",
"m. c #ED701C",
"M. c #C0533F",
"N. c #E55D23",
"B. c #C6762E",
"V. c #C86D33",
"C. c #CF7A32",
"Z. c #CC7636",
"A. c #DC7337",
"S. c #DD7438",
"D. c #D87A36",
"F. c #D06D2E",
"G. c #E47B38",
"H. c #E97F38",
"J. c #E37A37",
"K. c #EE6D24",
"L. c #A9765B",
"P. c #BB6B4C",
"I. c #846D6D",
"U. c #877677",
"Y. c #927876",
"T. c #AE7A61",
"R. c #864C49",
"E. c #D7754D",
"W. c #D0744E",
"Q. c #E57C4F",
"!. c #D68132",
"~. c #DB8333",
"^. c #E28634",
"/. c #E58A35",
"(. c #EC8E37",
"). c #EC843A",
"_. c #EF8839",
"`. c #E98537",
"'. c #FF8332",
"]. c #FF8C36",
"[. c #F38C3A",
"{. c #FD8B3A",
"}. c #F58336",
"|. c #F39139",
" X c #FB953A",
".X c #FF993B",
"XX c #FF9037",
"oX c #96807C",
"OX c #BB8969",
"+X c #B9987A",
"@X c #DB8B5D",
"#X c #ED8643",
"$X c #F48E42",
"%X c #FE9341",
"&X c #FF9945",
"*X c #F79245",
"=X c #EC8D57",
"-X c #D0946D",
";X c #ECA87C",
":X c #E79C72",
">X c #0F258D",
",X c #1A2C82",
"<X c #0C2397",
"1X c #091FAD",
"2X c #071FB4",
"3X c #0921A5",
"4X c #0921AE",
"5X c #142CAF",
"6X c #0A23B4",
"7X c #1D37B1",
"8X c #233AA9",
"9X c #253DB7",
"0X c #212DA2",
"qX c #1131D7",
"wX c #0C2BCC",
"eX c #0226ED",
"rX c #082CED",
"tX c #1032E3",
"yX c #0128F5",
"uX c #0028F9",
"iX c #0127F4",
"pX c #324AC5",
"aX c #9D7C82",
"sX c #AE8C91",
"dX c #B69CA2",
"fX c #EAB78A",
"gX c #EFB893",
"hX c #CFB1B1",
"jX c #E9C696",
"kX c #E8C5B5",
"lX c #C4B2C5",
"zX c #EDD6D0",
"xX c #F2E3E2",
/* pixels */
".X.X.X.X.X.X.X.X.X.X.X[.G.A.G.[. X.X.X.X.X.X.X.X.X.X.X.X.X.X.X.X.X.X.X.X.X.X.X.X.X.X.X.X.X.X.X.X.X.X",
".X.X.X.X.X.X.X.X.X.X.X.X[.J.A.S.[..X.X.X.X.X.X.X.X.X.X.X.X.X.X.X.X.X.X.X.X.X.X.X.X.X.X.X.X.X.X.X.X.X",
".X.X.X.X.X.X.X.X.X.X.X.X.X[._.[. X.X.X.X.X.X.X.X.X.X.X.X.X.X.X.X.X.X.X.X.X.X.X.X.X.X.X.X.X.X.X.X.X.X",
".X.X.X.X.X.X.X.X.X.X.X.X.X.X.X.X.X.X.X.X.X.X.X.X.X.X.X.X.X.X.X.X.X.X.X.X.X.X.X.X.X.X.X.X.X.X.X.X.X.X",
".X.X.X.X.X.X.X.X.X.X.X.X.X.X.X.X.X.X.X.X.X.X.X.X.X.X.X.X.X.X.X.X.X.X.X.X.X.X.X.X.X.X.X.X.X.X.X.X.X.X",
".X.X.X.X.X.X.X.X.X.X.X.X.X.X.X.X.X.X.X.X.X.X.X.X.X.X.X.X.X.X.X.X.X.X.X.X.X.X.X.X.X.XXX].].].XX.X.X.X",
".X.X.X.X.X.X.X.X.X.X.X.X.X.Xr.0. X X!.3.^.|..X.X.X.X.X.X.X.X.X.X.X.X.X.X.X.X.X.X.XXX'.'.'.'.]..X.X.X",
".X.X.X.X.X].].].].].].XX.X/.C +.K !.8.s 4.8..X.X.X.X.X.X.X.X.X.X.X.X.X.X.X.X.X.X].{.%X%X%X%X[.H.|..X",
".X.X.X.X X'.'.'.'.'.{.{.[.C.d O.` #.d ..` d 9..X.X.X.X.X.X.X.X.X.X.X.X.X.X.X.X.X}.}.$X$X$X$X).H.|..X",
".X.X.X&X%X'.'.'.'.{.&X).J.C.s ` ;.` k ` o.c d q.(..X.X.X.X.X.X.X.X.X.X.X.X.X.X.XH.A.S.S.S.S.`..X.X.X",
".X.X.X[.).{.XXXXXX%X&X).J.C.< a [ ;.o.z z | ' s 0.|..X.X.X.X.X.X.X.X.X.X.X.X.X.X[._._._._._.[..X.X.X",
".X.X.X_.G.$X*X*XZ.a.Z.D.q.q.> : f } } f 1 z { c s r.y.y.y.~..X.X.X.X.X.X.X.X.X.X.X.X.X.X.X.X.X.X.X.X",
".X.X.X X[.G.S.F.N o N q.o . 1 5 3 z s 3 3 : d X.c = O O O 3./..X.X.X.X.X.X.X.X.X.X.X.X.X.X.X.X.X.X.X",
".X.X.X.X X_.Z.Z p v i * c O [ M 6 @.g 8 6 a v :.2.j.%.%.%.i K /..X X[._.[..X.X.X.X.X.X.X.X.X.X.X.X.X",
".X.X.X.X.X.X7 a } X.| j h . e hXdXD Y.hXoXO s ,.%.%.c c c c y B .X[.S.S.G. X.X.X.X.X.X.X.X.X.X.X.X.X",
".X.X.X.X^.m l ] >.$.v =._ o H hX& } - _ xXkXd.f.<.' .   u - K |..X X[.[.[..X.X.X.X.X.X.X.X.X.X.X.X.X",
".X.X.X.X^.m l y - 1 1 4 t l H hX& } a I.xXzXN.l.f.$.i i - Z C.(.(.|..X.X.X.X.X.X.X.X.X.X.X.X.X.X.X.X",
".X.X.X.X|.y.s o   . X 9 D &.-.hXU.=.R.dXzXkX=Xl.g.d.| &.v V C C C 0.|..X.X.X.X.X.X.X.X.X.X.X.X.X.X.X",
".X.X.X.X.X X>     * y f H #X1.M.e.E.:XfXgXgXfX=XN.f.>.:.d.*.=.s.s.+.A C .X X X.X.X.X.X.X.X.X.X.X.X.X",
".X.X.X.X.X.Xr.m X f | }  .L.Q.E.W.fXfXfXfXgXfX=XK.l.f.&.g.n.v.b.n.g.5.5.J Z C B..X.X.X.X.X.X.X.X.X.X",
".X.X.X.X.X.X.XB.M f o.%.$.-.L.;XgXjXjX+X+XfX:X=Xb.N.f.f.x.b.n.v.b.c.c.n.b b O B B..X.X.X.X.X.X.X.X.X",
".X.X.X.X.X.X.X.Xq.V l | | $.-.P.OXfXjXOXT.;X@XF.n.K.g.m.v.z.j.f.k.>.,.z.>.<.= * A B..X.X.X.X.X.X.X.X",
".X.X.X.X.X.X.X.X.Xr.s i l o.| k G L.-X-X@XE.W.&.x.b.N.m.j.,.&.[ [ [ | >.| h o p y N C..X.X.X.X.X.X.X",
".X.X.X.X.X.X.X.X.X.Xy.> > h i h h < > a k o.X.%.&.c.b.h.%.%.i + >   = | i o = { | y 7 .X.X.X.X.X.X.X",
".X.X.X.X.X.X.X.X.X.X X(.^.. .   . i.|.L - ] %.%.&.c.n.b.k.f.S m B.+ < z > 2 *.@.c y M .X.X.X.X.X.X.X",
".X.X.X.X.X.X.X.X.X.X.X.X.X X X X X.X.X Xq.= c %.&.c.n.b.k.:.l B  Xy.< z X.c o.' - Z  X.X.X.X.X.X.X.X",
".X.X.X.X.X.X.X.X.X|.(..X.X.X.X.X_.`.`.[./.q.* ] &.c.n.b.k.+.Z !..X(.t.1 c | v a L ~..X.X.X.X.X.X.X.X",
".X.X.X.X.X.X.X.X.Xt.8..X.X.X.X.X`.S.S._..Xi.o ' &.c.b.c.<.l K  X.X.X(.y.* ' - 3.!..X.X.X.X.X.X.X.X.X",
".X.X.X.X.X.X.X.X8.) Y.J .X.X.X.Xm 7 7 7 M > o ' &.c.b.f.x L ^..X.X.X.X Xi.< r./..X.X.X.X.X.X.X.X.X.X",
".X.X.XXX].].XXt./ / / Y.A .X/.J W ,X,X,X,XT i $.k.b.d.b 4.^..X.X.X.X.X[.`.u.^..X.X.X.X.X.X.X.X.X.X.X",
".X.X.X].'.'.].3.U.I.^ dXu K P T 5XqXtXtXqX0X! #.7.q.G 2 m K K K K r.|.`.A.A.`..X.X.X.X.X.X.X.X.X.X.X",
".X.X&X{.'.'.}.L U.I.e / g % I wXwXeXuXuXeXwX7X! Q R ,XI 9 9 9 9 9 r 8.0.0.F.S.H.|..X.X.X.X.X.X.X.X.X",
".X X$X{.{.{.H.7./ / D e ( 0 7XyXuXuXuXuXiXwX6XwX7XE 6X>XW W W W W U X + 2 6.D.G.|..X.X.X.X.X.X.X.X.X",
".X[.S.$X&X&X#XA.Z ( sX( sX~ 9XrXuXeXeXeXwX4X6X6X8XE 3X1X2X2X2X2X3XU X : G 2 q./..X.X.X.X.X.X.X.X.X.X",
".X X[.).).).)._.A ^ aXD 8 lXpXrXiX6X4X1X5X9X9X8XE E E <X4X4X4X4X3XU 2   : G # r..X.X.X.X.X.X.X.X.X.X",
".X.X.X_.J.J._..XL 8 D : 5 R 8X8X8X8X9XT ; , , & Y Y Y >X3X3X3X3X<Xq X   X : F 2 K (..X.X.X.X.X.X.X.X",
".X.X.X X X X X.X^.9.5 1 f F w w w w w w.C.Z.V.7.8 4 4 U E E E E Y 4 ; ; D F & e D K /..X.X.X.X.X.X.X",
".X.X.X.X.X.X.X.X.X^.3.+ O 5 q.p.p.p.p.C.#X#X).D.B.B.i.B $ $ $ $ 4 B.q.@ 5 #   e G D Z .X X[._.[. X.X",
".X.X.X.X.X.X.X.X.X.X|.!.!.~.`.A.A.A.A.A.S.S._..X X X X/.!.!.D.F.A.'.V.+ 5 F X . e e M .X|.G.S.S.[..X",
".X.X.X.X.X.X.X.X.X.X.X.X.X.X.X[.[.[.[.[.[.[. X.X.X.X.X.X.X].{.%X%X%X[.u.X # , e 6 B C..X.X[.[.[. X.X",
".X.X.X.X.X.X.X.X.X.X.X.X.X.X.X.X.X.X.X.X.X.X.X.X.X.X.X.X.X}.}.$X$X$X$X).6.# + 2 B i..X.X.X.X.X.X.X.X",
".X.X.X.X.X.X.X.X.X.X.X.X.X.X.X.X.X.X.X.X.X.X.X.X.X.X.X.X XJ.A.S.S.S.S._.|.8.L L i..X.X.X.X.X.X.X.X.X",
".X.X.X[.`.`.[..X.X.X.X.X.X.X.X.X.X.X.X.X.X.X.X.X.X.X.X.X.X[._._._._._. X.X.X.X.X.X.X.X.X.X.X.X.X.X.X",
".X.X.X_.J.J._..X.X.X.X.X.X.X.X.X.X.X.X.X.X.X.X.X.X.X.X.X.X.X.X.X.X.X.X.X.X.X.X.X.X.X.X.X.X.X.X.X.X.X",
".X.X.X X X X X.X.X.X.X.X.X.X.X.X.X.X.X.X.X.X.X.X.X.X.X.X.X.X.X.X.X.X.X.X.X.X.X.X.X.X.X.X.X.X.X.X.X.X",
".X.X.X.X.X.X.X.X.X.X.X.X.X.X.X.X.X.X.X.X.X.X.X.X.X.X.X.X.X.X.X.X.X.X.X.X.X.X.X.X.X.X.X.X.X.X.X.X.X.X",
".X.X.X.X.X.X.X.X.X.X.X.X.X.X.X.X.X.X.X.X.X.X.X.X.X.X.X.X.X.X.X.X.X.X.X.X.X.X.X.X.X.X.X.X.X.X.X.X.X.X",
".X.X.X.X.X.X.X.X.X.X.X.X.X.X.X.X.X.X.X.X.X.X.X.X.X.X.X.X.X.X.X.X.X.X.X.X.X.X.X.X.X.X.X.X.X.X.X.X.X.X",
".X.X.X.X.X.X.X.X.X.X.X.X.X.X.X.X.X.X.X.X.X.X.X.X.X.X.X.X.X.X.X.X.X.X.X.X.X.X.X.X.X.X.X.X.X.X.X.X.X.X",
".X.X.X.X.X.X.X.X.X.X.X.X.X.X.X.X.X.X.X.X.X.X.X.X.X.X.X.X.X.X.X.X.X.X.X.X.X.X.X.X.X.X.X.X.X.X.X.X.X.X"
};
