/* XPM */
static char *_6157d25890a40c3d0601dd74ce887884DO7wKn7yyv2jl39[] = {
/* columns rows colors chars-per-pixel */
"50 50 228 2 ",
"   c #020100",
".  c #0C0401",
"X  c #05040A",
"o  c #130401",
"O  c #1A0501",
"+  c #130A05",
"@  c #1B0E07",
"#  c #090D1B",
"$  c #171318",
"%  c #1D100A",
"&  c #250500",
"*  c #2B0601",
"=  c #230B04",
"-  c #2B0C03",
";  c #260A09",
":  c #350A01",
">  c #3D0B01",
",  c #340700",
"<  c #24130A",
"1  c #2D160E",
"2  c #2C180D",
"3  c #251305",
"4  c #33170E",
"5  c #311D0C",
"6  c #351408",
"7  c #2A1710",
"8  c #331D19",
"9  c #3C230D",
"0  c #37210F",
"q  c #3C2417",
"w  c #040A25",
"e  c #0B122E",
"r  c #0B143A",
"t  c #111233",
"y  c #2E1C36",
"u  c #2A2422",
"i  c #382827",
"p  c #440A01",
"a  c #4C0C01",
"s  c #530E01",
"d  c #5D0E01",
"f  c #570200",
"g  c #461A08",
"h  c #571506",
"j  c #541B15",
"k  c #471D18",
"l  c #620E00",
"z  c #6C0F00",
"x  c #600602",
"c  c #651202",
"v  c #6B1201",
"b  c #6E1B08",
"n  c #751200",
"m  c #7B1400",
"M  c #7A100B",
"N  c #49240B",
"B  c #51220A",
"V  c #58280E",
"C  c #532C10",
"Z  c #5C3516",
"A  c #573315",
"S  c #6A350F",
"D  c #673712",
"F  c #6E2711",
"G  c #611B3F",
"H  c #452925",
"J  c #482D2B",
"K  c #48312D",
"L  c #453530",
"P  c #543F38",
"I  c #6E2A23",
"U  c #7B4616",
"Y  c #6E4219",
"T  c #694134",
"R  c #744735",
"E  c #291F47",
"W  c #152A69",
"Q  c #172974",
"!  c #0F2672",
"~  c #661E40",
"^  c #58324A",
"/  c #4A454A",
"(  c #765A57",
")  c #6F4F49",
"_  c #7D5D61",
"`  c #7A6A6E",
"'  c #8B1700",
"]  c #861900",
"[  c #8D1900",
"{  c #861501",
"}  c #951C01",
"|  c #9B1B00",
" . c #AE1F00",
".. c #9A2404",
"X. c #892702",
"o. c #A92802",
"O. c #B42501",
"+. c #BD2B01",
"@. c #B52D02",
"#. c #A83101",
"$. c #D20502",
"%. c #E70400",
"&. c #C02C00",
"*. c #C43605",
"=. c #D13B02",
"-. c #DD3D02",
";. c #D53703",
":. c #E33F00",
">. c #874C1D",
",. c #91431A",
"<. c #B0430A",
"1. c #864A22",
"2. c #8C5220",
"3. c #985824",
"4. c #8C4B32",
"5. c #A45B26",
"6. c #A26225",
"7. c #A96527",
"8. c #AA6529",
"9. c #B26A2A",
"0. c #BB6E2C",
"q. c #BC712B",
"w. c #D64D0E",
"e. c #D44918",
"r. c #E44202",
"t. c #EB4804",
"y. c #F5590B",
"u. c #EB500F",
"i. c #C6721D",
"p. c #D16717",
"a. c #F86B12",
"s. c #EB791E",
"d. c #FE7114",
"f. c #F3761C",
"g. c #FB7318",
"h. c #F07E1F",
"j. c #ED6912",
"k. c #D4512B",
"l. c #C66626",
"z. c #C5752D",
"x. c #CA792E",
"c. c #CF7C30",
"v. c #CA7330",
"b. c #DD7437",
"n. c #D27E30",
"m. c #DD7438",
"M. c #DD7B36",
"N. c #DE622D",
"B. c #E5672E",
"V. c #E47B39",
"C. c #EA7F38",
"Z. c #E07638",
"A. c #F0732D",
"S. c #903846",
"D. c #904848",
"F. c #AD5C4C",
"G. c #8C685A",
"H. c #9C6D69",
"J. c #8C7375",
"K. c #A96F69",
"L. c #AF796F",
"P. c #B76754",
"I. c #C76242",
"U. c #EA7B58",
"Y. c #D68031",
"T. c #DD8433",
"R. c #DC8120",
"E. c #E38635",
"W. c #ED853B",
"Q. c #EE8839",
"!. c #E88A37",
"~. c #FF8332",
"^. c #FF8C36",
"/. c #F48C3A",
"(. c #FD8B39",
"). c #F48437",
"_. c #F49139",
"`. c #FC953A",
"'. c #FF993B",
"]. c #FF9037",
"[. c #F58B31",
"{. c #B5897F",
"}. c #A88878",
"|. c #EC8740",
" X c #F38D42",
".X c #F29646",
"XX c #FC9343",
"oX c #FF9945",
"OX c #F79C4B",
"+X c #E08D5A",
"@X c #E68450",
"#X c #F08E56",
"$X c #E7915D",
"%X c #ED9140",
"&X c #E99B6B",
"*X c #E69A70",
"=X c #EDA679",
"-X c #F3AA7A",
";X c #C58C6B",
":X c #081C98",
">X c #0F2899",
",X c #0B25A3",
"<X c #0821B5",
"1X c #1D39BE",
"2X c #102CA4",
"3X c #0423C8",
"4X c #1637C9",
"5X c #1334D8",
"6X c #203EC7",
"7X c #0528E8",
"8X c #042AF3",
"9X c #0228F9",
"0X c #2141CB",
"qX c #B3928F",
"wX c #B9A6A7",
"eX c #D39F88",
"rX c #DAAE88",
"tX c #CEAA9B",
"yX c #EDAC8A",
"uX c #EEAE85",
"iX c #EAB78C",
"pX c #F2BA88",
"aX c #E8BE95",
"sX c #C4ADAD",
"dX c #F1C2B6",
"fX c #ECC7B0",
"gX c #D6C5C9",
"hX c #F5EEED",
/* pixels */
"'.'.'.'.'.'.'.'.'.'.'./.V.b.V./.`.'.'.'.'.'.'.'.'.'.'.'.'.'.'.'.'.'.'.'.'.'.'.'.'.'.'.'.'.'.'.'.'.'.",
"'.'.'.'.'.'.'.'.'.'.'.'./.V.b.b./.'.'.'.'.'.'.'.'.'.'.'.'.'.'.'.'.'.'.'.'.'.'.'.'.'.'.'.'.'.'.'.'.'.",
"'.'.'.'.'.'.'.'.'.'.'.'.'./.Q./.`.'.'.'.'.'.'.'.'.'.'.'.'.'.'.'.'.'.'.'.'.'.'.'.'.'.'.'.'.'.'.'.'.'.",
"'.'.'.'.'.'.'.'.'.'.'.'.'.'.'.'.'.'.'.'.'.'.'.'.'.'.'.'.'.'.'.'.'.'.'.'.'.'.'.'.'.'.'.'.'.'.'.'.'.'.",
"'.'.'.'.'.'.'.'.'.'.'.'.'.'.'.'.'.'.'.'.'.'.'.`.'.'.'.'.'.'.'.'.'.'.'.'.'.'.'.'.'.'.'.'.'.'.'.'.'.'.",
"'.'.'.'.'.'.'.'.'.'.'.'.'.'.'.'.'.'.'.'.'.'.T.Y '.'.'.'.'.'.'.'.'.'.'.'.'.'.'.'.'.'.].^.^.^.].'.'.'.",
"'.'.'.'.'.'.'.'.'.'.'.'.'.'.'.'.'.'.'.'.'.T.U > 2.!.'.'.'.'.'.'.'.'.'.'.'.'.'.'.'.].~.~.~.~.^.'.'.'.",
"'.'.'.'.'.^.^.^.^.^.^.].'.'.'.'.'.'.'.'.`.0.6 v x 5.!.'.'.'.'.'.'.'.'.'.'.'.'.'.^.(.XXXXXXXX/.C._.'.",
"'.'.'.'.`.~.~.~.~.~.(.(./.'.'.'.'.'.'.'._.5.g d $.f 5.!.'.'.'.'.'.'.'.'.'.'.'.'.).). X X X XW.C._.'.",
"'.'.'.oXoX~.~.~.~.(.oXW.V.`.'.'.z.7.x.!.2.* ] > v %.M ,.7.x.E.7.q.`.'.'.'.'.'.'.C.b.m.m.m.m.W.'.'.'.",
"'.'.'./.W.(.].].].XXoXW.V.`.'.n.S g >.3.% = v } m %.$.d < Z 3.g S z.'.'.'.'.'.'./.Q.Q.Q.Q.Q./.'.'.'.",
"'.'.'.Q.V. XXXXXXXXXXXW.V.`._.9 #.:.X.@ 4 1 6 v  .%.h 1 4 3 h :.#.3 `.'.'.'.'.'.'.'.'.'.'.'.'.'.'.'.",
"'.'.'.`./.V.V.V.V.V.V.Q.`.'.@ c z z { O.} 7 4 1 z 1 2 1 b O.| l z n < Y.'.'.'.'.'.'.'.'.'.'.'.'.'.'.",
"'.'.'.'.`.Q.W.W.W.W.W./.'.'.Y.N l > p c 1 < = =  .: = < 7 h d , d O v.E./.'.'.'.'.'.'.'.'.'.'.'.'.'.",
"'.'.'.'.'.'.'.'.'.'.'.'.'.'.`.Y.C p p > o.k.wXqXg J.wXI.O.c * a N z.b.b.V.`.'.'.'.'.'.'.'.'.'.'.'.'.",
"'.'.'.'.'.'.'.'.'.'.'.'.'.'.'.'.x.D a } k.dXsX/ h i sXdXU.O.c V 0._./././.'.'.'.'.'.'.'.'.'.'.'.'.'.",
"'.'.'.'.'.'.'.'.'.'.'.'.'.'.'.'.7.F [ e.=XhXwX$ ) $ wXhXfXN.o.b 3.'.'.'.'.'.'.'.'.'.'.'.'.'.'.'.'.'.",
"'.'.'.'.'.'.'.'.'.'.'.'.'.'.`.8.U <.N.#XaXgXqXe / # qXgXfX&XB.<.U 3.'.'.'.'.'.'.'.'.'.'.'.'.'.'.'.'.",
"'.'.'.'.'.'.'.'.'.'.'.'.'.'.6.D p.a.A.-XuXtXqX) # P qXtXrX-X#Xy.p.S 6.Q.'.'.'.'.'.'.'.'.'.'.'.'.'.'.",
"'.'.'.'.'.'.'.'.'.'.'.'.'.'.+ i.a.r.e.@X-XaXpXpX) rXpXaXiX$XN.-.a.h.@ Y.'.'.'.'.'.'.'.'.'.'.'.'.'.'.",
"'.'.'.'.'.'.'.'.'.'.'.'._.x.N p.t.&.+.u.$XyXaXaX;XiXaXiX&XB.;.O.t.j.N 7._.'.'.'.'.'.'.'.'.'.'.'.'.'.",
"'.'.'.'.'.'.'.'.'.'.'.`.n.2 s.t.:...} t.f.*XyXyXT eXyX*XC.y.+.] -.r.s.3 n.'.'.'.'.'.'.'.'.'.'.'.'.'.",
"'.'.'.'.'.'.'.'.'.'.'._.z.9 j.t.[ * * } u.$X+X+X$X+X+X+XB.O.a & m -.j.g z._.'.'.'.'.'.'.'.'.'.'.'.'.",
"'.'.'.'.'.'.'.'.'.'.`.x.D i.r.} , . , [ *.[.g.g.g.g.g.g.w.| s . & m t.R.N q.'.'.'.'.'.'.'.'.'.'.'.'.",
"'.'.'.'.'.'.'.'.'.'.`.x.B =.r.[ * >.>.* ] *.f.d.d.d.d.y.@.a C 3.- n t.t.- 9.'.'.'.'.'.'.'.'.'.'.'.'.",
"'.'.'.'.'.'.'.'.'.'.`.x.B =.} , >.T.2.& m *.f.d.d.d.d.u.o.p A T.3.* } r.- 9.'.'.'.'.'.'.'.'.'.'.'.'.",
"'.'.'.'.'.'.'.'.'.'.`.x.B =.n O 5.3.9 . p ..w.f.d.d.y.*.v O < 6.0.o n r.- 9.'.'.'.'.'.'.'.'.'.'.'.'.",
"'.'.'.'.'.'.'.'.'.'.`.x.B =.n - Z B *   . a ..f.d.y.@.d O   o h Z < n r.- 9.'.'.'.'.'.'.'.'.'.'.'.'.",
"'.'.'.'.'.'.'.'.'.'.`.x.B =.s 4 - d l O   & m s.d.t.] &   . > v - 4 s -.- 9.'.'.'.'.'.'.'.'.'.'.'.'.",
"'.'.'.].^.^.].'.'.'.`.x.N #.  @ h [ [ p   O F l.l.e.F ;   & n } d 3 . #.= 5./.'.'.'.'.'.'.'.'.'.'.'.",
"'.'.'.^.~.~.^.'.'.'.`.x.< .     % s p     w W W W W Q e     & d 3     . . 3.W.'.'.'.'.'.'.'.'.'.'.'.",
"'.'.oX(.~.~.).C._.'.'.c.9 .     . O - 3 # >X7X8X1X7X9X2Xr + 1 O o       < 5.Z.C._.'.'.'.'.'.'.'.'.'.",
"'.`. X(.(.(.C.b./.'.'._.9.< o o s [ ' p r 4X7X4X,X1X7X5XW ; n [ d O o . 8.M.V.C._.'.'.'.'.'.'.'.'.'.",
"'./.m. XoXoX|.b./.'.'.`.c.< d ' *.+.} j ! 8X7X<Xw :X7X8X,Xy { +.*.} d o n.`.'.'.'.'.'.'.'.'.'.'.'.'.",
"'.`./.W.W.W.W./.`.'.'.'.`./.@ d n n p r 4X9X7X<XX :X7X9X5XQ * n n v @ c.`.'.'.'.'.'.'.'.'.'.'.'.'.'.",
"'.'.'.Q.V.V.Q.'.'.'.'.'.'.XX0.N - - o r 6X5X7X<XX :X7X5X4XQ . - - 6 z._.'.'.'.'.'.'.'.'.'.'.'.'.'.'.",
"'.'.'.`.`.`.`.'.'.'.'.'.`.V.W.9.6.5.Z r 0X4X3X<XX :X3X4X0XQ 9 6.6.7.'.'.'.'.'.'.'.'.'.'.'.'.'.'.'.'.",
"'.'.'.'.'.'.'.'.'.'.'.'.`.Q.W.|.|.3.5 # E D.~ r 3.y ~ S.^ e < 2.Q.^.^.'.'.'.'.'.'.'.'.'.'./.Q./.`.'.",
"'.'.'.'.'.'.'.'.'.'.'.'.'.'.Q.b.1.( J.` _ P.I + _.5 F F.H.` J.G.2.~.~.^.'.'.'.'.'.'.'.'.`.V.b.b./.'.",
"'.'.'.'.'.'.'.'.'.'.'.'.'.'._.3.h 4.L.K.J.( i . _.5 8 ) J.H.K.D.j 1.XXQ.W.`.'.'.'.'.'.'.'./././.`.'.",
"'.'.'.'.'.'.'.'.'.'.'.'.'.'._.9 > s s g H H 8 . _.5 8 H J k a s > +  XW.W.`.'.'.'.'.'.'.'.'.'.'.'.'.",
"'.'.'.'.'.'.'.'.'.'.'.'.'.'._.9 u L K i H q J . _.5 K H q i i L u + m.Q.'.'.'.'.'.'.'.'.'.'.'.'.'.'.",
"'.'.'./.W.W./.'.'.'.'.'.'.'.`.Z }.tXeX{.L.R T 0 _.A T R G.{.qXtX}.0 Q._.'.'.'.'.'.'.'.'.'.'.'.'.'.'.",
"'.'.'.Q.V.V.Q.'.'.'.'.'.'.'.'.E..XOXOX.X.X!.!.T.'.E.!.!.%X.XOXOX.XT.'.'.'.'.'.'.'.'.'.'.'.'.'.'.'.'.",
"'.'.'.`.`.`.`.'.'.'.'.'.'.'.'.'.'.'.'.'.'.'.'.'.'.'.'.'.'.'.'.'.'.'.'.'.'.'.'.'.'.'.'.'.'.'.'.'.'.'.",
"'.'.'.'.'.'.'.'.'.'.'.'.'.'.'.'.'.'.'.'.'.'.'.'.'.'.'.'.'.'.'.'.'.'.'.'.'.'.'.'.'.'.'.'.'.'.'.'.'.'.",
"'.'.'.'.'.'.'.'.'.'.'.'.'.'.'.'.'.'.'.'.'.'.'.'.'.'.'.'.'.'.'.'.'.'.'.'.'.'.'.'.'.'.'.'.'.'.'.'.'.'.",
"'.'.'.'.'.'.'.'.'.'.'.'.'.'.'.'.'.'.'.'.'.'.'.'.'.'.'.'.'.'.'.'.'.'.'.'.'.'.'.'.'.'.'.'.'.'.'.'.'.'.",
"'.'.'.'.'.'.'.'.'.'.'.'.'.'.'.'.'.'.'.'.'.'.'.'.'.'.'.'.'.'.'.'.'.'.'.'.'.'.'.'.'.'.'.'.'.'.'.'.'.'.",
"'.'.'.'.'.'.'.'.'.'.'.'.'.'.'.'.'.'.'.'.'.'.'.'.'.'.'.'.'.'.'.'.'.'.'.'.'.'.'.'.'.'.'.'.'.'.'.'.'.'."
};
