/* XPM */
static char *_be7b620596c47708fe6df44d0fcfcf5cReLTH9VMurtw3Qk[] = {
/* columns rows colors chars-per-pixel */
"50 50 217 2 ",
"   c #020100",
".  c #0C0402",
"X  c #02040A",
"o  c #0E0806",
"O  c #130400",
"+  c #1B0501",
"@  c #130A04",
"#  c #1A0D05",
"$  c #160D0C",
"%  c #1A0D09",
"&  c #1C1007",
"*  c #04091A",
"=  c #1A1211",
"-  c #250500",
";  c #2B0700",
":  c #230B04",
">  c #2D0901",
",  c #3D0C01",
"<  c #350600",
"1  c #25130C",
"2  c #2C150D",
"3  c #2F1B0A",
"4  c #3D1205",
"5  c #35140B",
"6  c #341C0D",
"7  c #39150A",
"8  c #2A1B1A",
"9  c #331F1F",
"0  c #3B230E",
"q  c #3D2411",
"w  c #0C102F",
"e  c #111120",
"r  c #0D1A3B",
"t  c #111530",
"y  c #21122B",
"u  c #3C2826",
"i  c #430C01",
"p  c #4B0E00",
"a  c #540D01",
"s  c #5C0F01",
"d  c #4B1B0A",
"f  c #461407",
"g  c #541104",
"h  c #5B1103",
"j  c #591A01",
"k  c #531705",
"l  c #5A1615",
"z  c #620E00",
"x  c #6C0E00",
"c  c #700F00",
"v  c #661103",
"b  c #6C1101",
"n  c #631905",
"m  c #741200",
"M  c #7C1500",
"N  c #7B1B03",
"B  c #48250D",
"V  c #55240A",
"C  c #5D310E",
"Z  c #512F13",
"A  c #5A3515",
"S  c #472811",
"D  c #632D0C",
"F  c #633A16",
"G  c #6B3B14",
"H  c #683111",
"J  c #753C15",
"K  c #452925",
"L  c #4F3232",
"P  c #503333",
"I  c #73441B",
"U  c #7C461B",
"Y  c #111D5A",
"T  c #14295B",
"R  c #2E2246",
"E  c #051268",
"W  c #0B1673",
"Q  c #291A73",
"!  c #162C65",
"~  c #152C6C",
"^  c #182E6C",
"/  c #12236B",
"(  c #192C76",
")  c #19317A",
"_  c #3F2075",
"`  c #3B307F",
"'  c #512E7B",
"]  c #694B4D",
"[  c #860502",
"{  c #841501",
"}  c #8C1600",
"|  c #841903",
" . c #8B1B02",
".. c #941B00",
"X. c #9C1C01",
"o. c #991100",
"O. c #950B02",
"+. c #A00B02",
"@. c #A21D00",
"#. c #AA1E00",
"$. c #A61300",
"%. c #B51101",
"&. c #8C2000",
"*. c #9B2201",
"=. c #942C04",
"-. c #A52202",
";. c #AC2100",
":. c #A42008",
">. c #B42300",
",. c #BB2600",
"<. c #B42900",
"1. c #BB2B00",
"2. c #BA3301",
"3. c #C00700",
"4. c #E40300",
"5. c #F20200",
"6. c #C42C00",
"7. c #C92E02",
"8. c #C33501",
"9. c #CD3400",
"0. c #CA3B03",
"q. c #D33401",
"w. c #DB3A00",
"e. c #D53A01",
"r. c #E53E00",
"t. c #E83F00",
"y. c #94480F",
"u. c #824219",
"i. c #854C1F",
"p. c #88511F",
"a. c #85501F",
"s. c #9B5215",
"d. c #A84F10",
"f. c #AD5211",
"g. c #854E23",
"h. c #955822",
"j. c #9D5D24",
"k. c #955324",
"l. c #934E25",
"z. c #A45F24",
"x. c #A46225",
"c. c #AA6427",
"v. c #B56B2A",
"b. c #B86E2A",
"n. c #C35A0F",
"m. c #DD530B",
"M. c #D04509",
"N. c #E74001",
"B. c #E94201",
"V. c #E64806",
"C. c #EC4A05",
"Z. c #EB4E09",
"A. c #ED540B",
"S. c #E9580E",
"D. c #F25106",
"F. c #F25B0C",
"G. c #F05108",
"H. c #F14D06",
"J. c #C66217",
"K. c #D66113",
"L. c #F6620D",
"P. c #ED6310",
"I. c #F66912",
"U. c #F57519",
"Y. c #C26F2E",
"T. c #C2742D",
"R. c #CD7B2F",
"E. c #DD7437",
"W. c #DD7438",
"Q. c #D67935",
"!. c #D27030",
"~. c #E47B39",
"^. c #E97F38",
"/. c #8C7779",
"(. c #DB8232",
"). c #E58A35",
"_. c #EC8D37",
"`. c #E5823B",
"'. c #ED853A",
"]. c #EF8839",
"[. c #E38535",
"{. c #FF8332",
"}. c #FF8C36",
"|. c #F38D3A",
" X c #FD8B39",
".X c #F48437",
"XX c #F59239",
"oX c #FC953B",
"OX c #FF993B",
"+X c #FE983B",
"@X c #FD983B",
"#X c #FF993B",
"$X c #F89037",
"%X c #ED8840",
"&X c #F38D42",
"*X c #FF9341",
"=X c #F89345",
"-X c #FF9442",
";X c #FF9945",
":X c #102783",
">X c #162B89",
",X c #1B3386",
"<X c #1E389F",
"1X c #0E2599",
"2X c #0A23AA",
"3X c #1C36A8",
"4X c #0B24B3",
"5X c #1833B7",
"6X c #213EBC",
"7X c #203CB4",
"8X c #203BAA",
"9X c #1F3EC2",
"0X c #2241C7",
"qX c #AB8C92",
"wX c #A8888F",
"eX c #BFA6A8",
"rX c #D1BCBC",
/* pixels */
"OXOXOXOXOXOXOXOXOXOXOX|.~.E.~.|.oXOXOXOXOXOXOXOXOXOXOXOXOXOXOXOXOXOXOXOXOXOXOXOXOXOXOXOXOXOXOXOXOXOX",
"OXOXOXOXOXOXOXOXOXOXOXOX|.~.E.E.|.OXOXOXOXOXOXOXOXOXOXOXOXOXOXOXOXOXOXOXOXOXOXOXOXOXOXOXOXOXOXOXOXOX",
"OXOXOXOXOXOXOXOXOXOXOXOX+X|.].|.oXOXOXOXOXOXOXOXOXOXOXOXOXOXOXOXOXOXOXOXOXOXOXOXOXOXOXOXOXOXOXOXOXOX",
"OXOXOXOXOXOXOXOXOXOXOXOXOXOXOXOXOXOXOXOXOXOXOXOXOXOXOXOXOXOXOXOXOXOXOXOXOXOXOXOXOXOXOXOXOXOXOXOXOXOX",
"OXOXOXOXOXOXOXOXOXOXOXOXOXOXOXOXOXOXOXOXOXOXOXOXOXOXOXOXOXOXOXOXOXOXOXOXOXOXOXOXOXOXOXOXOXOXOXOXOXOX",
"OXOXOXOXOXOXOXOXOXOXOXOXOXOXOXOXOXOXOXOXOXOXOXOXOXh._.OXOXOXOXOXOXOXOXOXOXOXOXOXOX+X}.}.}.}.oXOXOXOX",
"OXOXOXOXOXOXOXOXOXOXOXOXOXOXOXOXOXOXOXOXOXOXOX(.c.4 z.XXOXOXOXOXOXOXOXOXOXOXOXOXOXoX{.{.{.{.}.+XOXOX",
"OXOXOXOX+X}.}.}.}.}.}.oXOXOXOXOXOXOXOXOXOXOX).u.< b 7 ).+XOXOXOXOXOXOXOXOXOXOXOX}. X*X*X*X*X|.^.XXOX",
"OXOXOX#X+X{.{.{.{.{. X X|.+XOXOXOXOXOXOXOX_.u.[ 4.s d T.oXOXOXOXOXOXOXOXOXOXOX+X.X.X&X&X&X&X'.^.XXOX",
"OXOXOX;X-X{.{.{.{. X;X'.~.oXOXOXOXOXOX+XOXp.[ %.x +  .: _.OXOXOXOXOXOXOXOXOXOX+X^.E.W.W.W.W.'.+XOXOX",
"OXOXOX|.'. XoXoXoX*X;X'.~.XXoX[.@ @ (.Z o [ 5.3.m @.b . @ v.G # F oXOXOXOXOXOXOX|.].].].].].|.OXOXOX",
"OXOXOX].~.&X=X=X=X=X=X'.~.|.T.Z n.n.C 6 2 f { %.X.m f 1 2 B y.n.y.I XXOXOXOXOXOXOXOXOXOXOXOXOXOXOXOX",
"OXOXOXoX|.~.~.~.~.~.~.].XXv.H  .D.H.f.=.d f k n M 7 g 1  .d.m.Z.0.N p.OXOXOXOXOXOXOXOXOXOXOXOXOXOXOX",
"OXOXOXOXoX].'.'.'.'.'.|.OX).h., 7.,.V.*.| M O.+.m  .m h M 0.9.6...V Y.].|.+XOXOXOXOXOXOXOXOXOXOXOXOX",
"OXOXOXOXOXOXOXOXOXOX#XOXOXOX).j.p #.6.@.1.*.o.$.c } ..1...,.,.b D v.E.E.~.oXOXOXOXOXOXOXOXOXOXOXOXOX",
"OXOXOXOXOXOXOXOX#X#X#XOXOXOXOXXXU n @.6.r.1.} } ..m 6.B.q.>.M J v.oX|.|.|.+XOXOXOXOXOXOXOXOXOXOXOXOX",
"OXOXOXOXOXOXOXOXOXOXOXOXOXOXOXXXh.k 1.w.B.q.;.} ....w.t.t.,.b u.T.OXOXOXOXOXOXOXOXOXOXOXOXOXOXOXOXOX",
"OXOXOXOXOXOXOXOXOXOXOXOXOXOX_.v., #.r.C.B.C.w.@.{ 6.r.C.B.6.7.n H R.+XOXOXOXOXOXOXOXOXOXOXOXOXOXOXOX",
"OXOXOXOXOXOXOXOXOXOXOXOXOX_.z.> q.>.r.L.G.F.F.q.,.C.C.I.B.B.L.M. .B (.OXOXOXOXOXOXOXOXOXOXOXOXOXOXOX",
"OXOXOXOXOXOXOXOXOXOXOXOXoXx.f >.I.N.N.N.B.B.N.t.N.U.V.B.B.t.t.F.m.| A OXOXOXOXOXOXOXOXOXOXOXOXOXOXOX",
"OXOXOXOXOXOXOXOXOXOXOXOXXXj.C U.r.#.w.t.B.B.B.B.t.B.B.U.B.r.,.q.A.J.F _.OXOXOXOXOXOXOXOXOXOXOXOXOXOX",
"OXOXOXOXOXOXOXOXOXOXOXoXv.J J.V.w.m ;.w.F.A.A.F.B.B.B.Z.N.1.{ 1.N.S.s.F OXOXOXOXOXOXOXOXOXOXOXOXOXOX",
"OXOXOXOXOXOXOXOXOXOXOX+Xc.D P.r.{ - m 9.C.B.B.B.t.B.B.I.B..., v <.D.d.q OXOXOXOXOXOXOXOXOXOXOXOXOXOX",
"OXOXOXOXOXOXOXOXOXOXOXc.G K.e.M O   z -.q.N.B.A.U.t.B.C.,.M ; O i -.m.f.Z _.OXOXOXOXOXOXOXOXOXOXOXOX",
"OXOXOXOXOXOXOXOXOXOXOXh.V D.9.b @ x.5 b 6.N.A.P.A.t.t.6.{ i U S ; ..C.M.3 _.OXOXOXOXOXOXOXOXOXOXOXOX",
"OXOXOXOXOXOXOXOXOXOXOXh.j e.| 4 j._.1 a -.w.Z.F.F.t.t.>.M > j.b.G p 1.8.3 _.OXOXOXOXOXOXOXOXOXOXOXOX",
"OXOXOXOXOXOXOXOXOXOXOXh.j 8.a # [.l.@ > b >.w.C.F.t.9...i + A R.j.+ *.8.3 _.OXOXOXOXOXOXOXOXOXOXOXOX",
"OXOXOXOXOXOXOXOXOXOXOXh.j 8.h & l.4     ; m 1.C.V.w.X.a     + U I : *.8.3 _.OXOXOXOXOXOXOXOXOXOXOXOX",
"OXOXOXOXOXOXOXOXOXOXOXh.j 2.g 2 . { - .   < -.Z.P.9.m .   + z > @ 5 &.8.3 _.OXOXOXOXOXOXOXOXOXOXOXOX",
"OXOXOXoX}.}.oXOXOXOXOXh.k =..   O X.b +   , | :.:.X.v .   a ..,     k 2.3 E.|.OXOXOXOXOXOXOXOXOXOXOX",
"OXOX#X}.{.{.}.+XOXOXOXh.                X r ! ~ ^ ! T *                 1 !.'.+XOXOXOXOXOXOXOXOXOXOX",
"OX#X;X X{.{..X^.XXOXOXj.&           O   r ! ~ ,X3X^ ! ! X .           . S !.W.^.XXOXOXOXOXOXOXOXOXOX",
"OXoX&X X X X^.E.|.OXOX_.a.          a + / ,X,X5X4X8X( 6XX i -         6 R.`.~.^.XXOXOXOXOXOXOXOXOXOX",
"OX|.W.&X;X;X%XE.|.OXOXoXj.    . @.X.m R ! ! :XW * 2X~ ^ T l } X.b     0 OXoX+X+XOXOXOXOXOXOXOXOXOXOX",
"OXoX|.'.'.'.'.|.oXOXOXOX).I : z { } ; ( ,X! :XE X 2X~ T 3Xy z { m i q R.OXOXOXOXOXOXOXOXOXOXOXOXOXOX",
"OXOXOX].~.~.].OXOXOXOXOX+XQ.i.> ; >   >X7X) :XE X 2X^ <X6Xw + ; ; d T.OXOXOXOXOXOXOXOXOXOXOXOXOXOXOX",
"OXOXOXoXoXoXoXOXOXOXOXOXoX~.Q.g.g.g.@ >X0X3X1XE X 4X1X9X6Xt Z i.i.x.OXOXOXOXOXOXOXOXOXOXOXOXOXOXOXOX",
"OXOXOXOXOXOXOXOXOXOXOXOXoX].'.%X`.k.# Y ` ' Q R A W _ ' ( e A Q.}.}.}.+XOXOXOXOXOXOXOXOX+X|.].|.oXOX",
"OXOXOXOXOXOXOXOXOXOXOXOXOXOX].!.l.1 o o h ..g U oXO | X.+ o o J !.{.{.}.+XOXOXOXOXOXOXOXoX~.E.E.|.OX",
"OXOXOXOXOXOXOXOXOXOXOXOXOX#X|.Y.O 5 5 2 2 2 % I XX. 1 2 2 5 7 : A `.*X].'.oXOXOXOXOXOXOX+X|.|.|.oXOX",
"OXOXOXOXOXOXOXOXOXOXOXOXOXOXT.. v v z 5 1 1 % I XX  1 1 1 a v v i q &X'.'.oXOXOXOXOXOXOXOXOXOXOXOXOX",
"OXOXOXOXOXOXOXOXOXOXOXOXOXOXT.o u K 9 = $ $ o I XX  $ $ $ 8 K u 8 6 W.].+XOXOXOXOXOXOXOXOXOXOXOXOXOX",
"OXOXOX|.'.'.|.OXOXOXOXOXOXOXT.= rXqXqX] L P 8 I XXo K L P /.wXeX/.0 ].oXOXOXOXOXOXOXOXOXOXOXOXOXOXOX",
"OXOXOX].~.~.].OXOXOXOXOXOXOXOXXX#X@X@XoXXXXXXXoXOXXXXXXXXXoX@X@XoXXXOXOXOXOXOXOXOXOXOXOXOXOXOXOXOXOX",
"OXOXOXoXoXoXoXOXOXOXOXOXOXOXOXOXOXOXOXOXOXOXOXOXOXOXOXOXOXOXOXOXOXOXOXOXOXOXOXOXOXOXOXOXOXOXOXOXOXOX",
"OXOXOXOXOXOXOXOXOXOXOXOXOXOXOXOXOXOXOXOXOXOXOXOXOXOXOXOXOXOXOXOXOXOXOXOXOXOXOXOXOXOXOXOXOXOXOXOXOXOX",
"OXOXOXOXOXOXOXOXOXOXOXOXOXOXOXOXOXOXOXOXOXOXOXOXOXOXOXOXOXOXOXOXOXOXOXOXOXOXOXOXOXOXOXOXOXOXOXOXOXOX",
"OXOXOXOXOXOXOXOXOXOXOXOXOXOXOXOXOXOXOXOXOXOXOXOXOXOXOXOXOXOXOXOXOXOXOXOXOXOXOXOXOXOXOXOXOXOXOXOXOXOX",
"OXOXOXOXOXOXOXOXOXOXOXOXOXOXOXOXOXOXOXOXOXOXOXOXOXOXOXOXOXOXOXOXOXOXOXOXOXOXOXOXOXOXOXOXOXOXOXOXOXOX",
"OXOXOXOXOXOXOXOXOXOXOXOXOXOXOXOXOXOXOXOXOXOXOXOXOXOXOXOXOXOXOXOXOXOXOXOXOXOXOXOXOXOXOXOXOXOXOXOXOXOX"
};
