/* XPM */
static char *_d7b368c14034a86bf198db11095d775aS1XE4g4Ms3Pakn0[] = {
/* columns rows colors chars-per-pixel */
"50 50 223 2 ",
"   c #030201",
".  c #0B0402",
"X  c #0F0907",
"o  c #1A0400",
"O  c #130A05",
"+  c #160A07",
"@  c #1A100F",
"#  c #1E1107",
"$  c #080914",
"%  c #161011",
"&  c #2A0802",
"*  c #330A01",
"=  c #3A0C03",
"-  c #2C150D",
";  c #26150A",
":  c #361002",
">  c #391709",
",  c #291814",
"<  c #341D13",
"1  c #361D16",
"2  c #3B230E",
"3  c #3C2416",
"4  c #0A1127",
"5  c #091031",
"6  c #2A152B",
"7  c #382524",
"8  c #342A28",
"9  c #440C01",
"0  c #4C0C02",
"q  c #4E0700",
"w  c #5D0E00",
"e  c #540D02",
"r  c #471507",
"t  c #5D1303",
"y  c #571407",
"u  c #451912",
"i  c #581B18",
"p  c #6A0E00",
"a  c #640902",
"s  c #750800",
"d  c #6D1201",
"f  c #651802",
"g  c #751301",
"h  c #7A1300",
"j  c #781806",
"k  c #57280B",
"l  c #4A2C19",
"z  c #592A12",
"x  c #583414",
"c  c #4C260A",
"v  c #6C2C0D",
"b  c #693E18",
"n  c #673918",
"m  c #742609",
"M  c #551722",
"N  c #432925",
"B  c #513130",
"V  c #623D2A",
"C  c #782239",
"Z  c #6C411A",
"A  c #73431B",
"S  c #7C4A1C",
"D  c #794118",
"F  c #5D412A",
"G  c #7E4D3B",
"H  c #774937",
"J  c #6B4E3B",
"K  c #363945",
"L  c #341B6E",
"P  c #182A77",
"I  c #1A3071",
"U  c #202361",
"Y  c #192B57",
"T  c #50294F",
"R  c #451B62",
"E  c #402C68",
"W  c #602C62",
"Q  c #524B4B",
"!  c #785343",
"~  c #795B5E",
"^  c #7D706F",
"/  c #870800",
"(  c #821500",
")  c #881A03",
"_  c #941B01",
"`  c #9B1E02",
"'  c #951600",
"]  c #91130B",
"[  c #A31C00",
"{  c #AC1A00",
"}  c #B70A00",
"|  c #842504",
" . c #952304",
".. c #A92301",
"X. c #BD2D00",
"o. c #B62701",
"O. c #BE3A08",
"+. c #B3321A",
"@. c #993D3D",
"#. c #B23A26",
"$. c #D20A00",
"%. c #E00F00",
"&. c #C82E00",
"*. c #C93300",
"=. c #D33B02",
"-. c #DC3C01",
";. c #D43500",
":. c #E43D01",
">. c #864918",
",. c #86501F",
"<. c #8E501E",
"1. c #91521F",
"2. c #8A460E",
"3. c #BD400A",
"4. c #8A5320",
"5. c #9D5E25",
"6. c #995A28",
"7. c #A65E25",
"8. c #AD5024",
"9. c #B66C2A",
"0. c #B96B2A",
"q. c #AA6527",
"w. c #DE4E0C",
"e. c #D64A0A",
"r. c #DE5416",
"t. c #CC510B",
"y. c #E94201",
"u. c #F24D06",
"i. c #E5570C",
"p. c #F2570A",
"a. c #E45A1B",
"s. c #EE4E1E",
"d. c #DD7018",
"f. c #F86A13",
"g. c #F4731A",
"h. c #FB7718",
"j. c #FC7315",
"k. c #EC6E16",
"l. c #C5762D",
"z. c #CB782E",
"x. c #CD7932",
"c. c #DD7437",
"v. c #D17E31",
"b. c #DE7439",
"n. c #CD6928",
"m. c #EC6828",
"M. c #E37B39",
"N. c #E97F38",
"B. c #E67735",
"V. c #E9692F",
"C. c #8A3A49",
"Z. c #92544F",
"A. c #9D5C5B",
"S. c #855D4E",
"D. c #B8554A",
"F. c #966C57",
"G. c #A37358",
"H. c #8C6F6F",
"J. c #AB7F74",
"K. c #A86C68",
"L. c #D4774E",
"P. c #E57644",
"I. c #C17569",
"U. c #FC841E",
"Y. c #DC8333",
"T. c #F88224",
"R. c #E58935",
"E. c #EA8C36",
"W. c #ED853A",
"Q. c #EF883A",
"!. c #E38635",
"~. c #FE8332",
"^. c #FF8D36",
"/. c #F48D3A",
"(. c #FD8B3A",
"). c #F48437",
"_. c #F59239",
"`. c #FB953A",
"'. c #FF993B",
"]. c #FF9037",
"[. c #AE9078",
"{. c #D68254",
"}. c #EF8941",
"|. c #EB8740",
" X c #F38D42",
".X c #FC9443",
"XX c #FE9943",
"oX c #CF926B",
"OX c #E69769",
"+X c #F09465",
"@X c #DAA176",
"#X c #E9AA7D",
"$X c #142C85",
"%X c #0A2482",
"&X c #0821B7",
"*X c #1B36BA",
"=X c #213DB9",
"-X c #0622C3",
";X c #1D3AC5",
":X c #0A2CD8",
">X c #1639D8",
",X c #0C34DA",
"<X c #082CE8",
"1X c #0429F2",
"2X c #0127F6",
"3X c #1D40C8",
"4X c #948285",
"5X c #A89097",
"6X c #D6A585",
"7X c #D8A594",
"8X c #D6B78D",
"9X c #EEBB8B",
"0X c #E9BA95",
"qX c #EBAD84",
"wX c #CFA9A5",
"eX c #E4C596",
"rX c #E9C191",
"tX c #F0C9B7",
"yX c #D5BCC2",
"uX c #DBC3C2",
"iX c #F6E2D9",
"pX c #F8F3F2",
"aX c #E6D2D0",
/* pixels */
"'.'.'.'.'.'.'.'.'.'.'.'./.M.c.b./.'.'.'.'.'.'.'.'.'.'.'.'.'.'.'.'.'.'.'.'.'.'.'.'.'.'.'.'.'.'.'.'.'.",
"'.'.'.'.'.'.'.'.'.'.'.'.'./.Q./.`.'.'.'.'.'.'.'.'.'.'.'.'.'.'.'.'.'.'.'.'.'.'.'.'.'.'.'.'.'.'.'.'.'.",
"'.'.'.'.'.'.'.'.'.'.'.'.'.'.'.'.'.'.'.'.'.'.'.'.'.'.'.'.'.'.'.'.'.'.'.'.'.'.'.'.'.'.'.'.'.'.'.'.'.'.",
"'.'.'.'.'.'.'.'.'.'.'.'.'.'.'.'.'.'.'.'.'.'.'.'.'.'.'.'.'.'.'.'.'.'.'.'.'.'.'.'.'.'.'.'.'.'.'.'.'.'.",
"'.'.'.'.'.'.'.'.'.'.'.'.'.'.'.'.'.'.'.'.'.'.'.'.'.'.'.'.'.'.'.'.'.'.'.'.'.'.'.'.'.'.].^.^.^.].'.'.'.",
"'.'.'.'.'.'.'.'.'.'.'.'.'.'.'.'.'.'.'.'.'.'.'.'.'.'.'.'.'.'.'.'.'.'.'.'.'.'.'.'.'.].~.~.~.~.^.'.'.'.",
"'.'.'.'.'.^.^.^.^.^.^.].'.'.'.'.'.'.'.'.'.'.'.'.'.'.'._.x x Y.4.x x 5.'.'.'.'.'.^.(..X.X.X.X/.N._.'.",
"'.'.'.'.`.~.~.~.~.~.(.(./.'.'.'.'.'.'.'.'.'.'.'.'.v.4.>.s q A j / s v 9.`.'.'.'.).). X X X XW.N._.'.",
"'.'.'.XXXX~.~.~.~.(.XXW.M.`.'.'.'.'.'.'.`.'.'.'.R.D = * $./ a } $.' v 5.`.'.'.'.N.c.b.b.b.b.W.'.'.'.",
"'.'.'./.W.(.`.`.`..XXXW.M.`.'.'.'.'.`.l.q.Y.'.`.z.* g t ) d $.{ g = x l.`.'.'.'./.Q.Q.Q.Q.Q./.'.'.'.",
"'.'.'.Q.M. X.X.X.X.X.XW.M.`.'.'.'.'.5.v 9 >.v.Y.<.t j - - r _ d > u > b _.'.'.'.'.'.'.'.'.'.'.'.'.'.",
"'.'.'.`./.M.M.M.M.M.M.Q.`.'.'.'._.l.* g ` f >.<.y ) r - - - t r - y y b _.'.'.'.'.'.'.'.'.'.'.'.'.'.",
"'.'.'.'.`.Q.W.W.W.W.W./.'.'.'.'.v.; d d p _ f e { d f < 3 1 - < 3 < ; n !.`.'.'.'.'.'.'.'.'.'.'.'.'.",
"'.'.'.'.'.'.'.'.'.'.'.'.'.'.'.'.'.'.  0 o 9 ' &.-.) z s.pXyXN H.yXK.0 n c._.'.'.'.'.'.'.'.'.'.'.'.'.",
"'.'.'.'.'.'.'.'.'.'.'.'.'.'.'.'.'./.. e o . t o.o.:.V.iXuXQ ` u H.^ A Y./.`.'.'.'.'.'.'.'.'.'.'.'.'.",
"'.'.'.'.'.'.'.'.'.'.'.'.'.'.'.'.'./.0.z e & * ..:.e.b.pXuXQ ` = ^ K.r ,._.- 2 R.'.'.'.'.'.'.'.'.'.'.",
"'.'.'.'.'.'.'.'.'.'.'.'.'.'.'.'.'.`.l ; w w g X.w.a.P.aXwX4X+.Z.5XA.a i B Q $ 2 Y.'.'.'.'.'.'.'.'.'.",
"'.'.'.'.'.'.'.'.'.'.'.'.'.'.'.'.!.S 2.2. .' ..e.a.V.+X0X6X7XL.D.D.#.o.8.F.K $   v.'.'.'.'.'.'.'.'.'.",
"'.'.'.'.'.'.'.'.'.'.'.'.'.'.'.Y.1.>.h.f.=.*.=.r.V.+X9X9X9X9X9XoXL.P.P.L.G.$ % Z R.'.'.'.'.'.'.'.'.'.",
"'.'.'.'.'.'.'.'.'.'.'.'.'.'.`.0.k d.j.u.;.-.w.a.B.#X0XeXeXeXeXeX9XoXG.J 7 A S E.'.'.'.'.'.'.'.'.'.'.",
"'.'.'.'.'.'.'.'.'.'.'.'.'.'.E.,.2.g.p.u.[ O.r.m.T.OXqX0X[.8XeXrX@X! l A Z '.'.'.'.'.'.'.'.'.'.'.'.'.",
"'.'.'.'.'.'.'.'.'.'.'.'.'.'.z.c d.j.y.=.` O.a.g.g.L.OXqXS.6XrXoX! l 6._._.'.'.'.'.'.'.'.'.'.'.'.'.'.",
"'.'.'.'.'.'.'.'.'.'.'.'.'._.0.k k.f.-.` =.a.m.g.i.+.{.{.#X@X@XF ; ,.`.'.'.'.'.'.'.'.'.'.'.'.'.'.'.'.",
"'.'.'.'.'.'.'.'.'.'.'.'.'.9.> U.f.y.p &.g.T.h.w.{ { ' a B , ; l.'.'.'.'.'.'.'.'.'.'.'.'.'.'.'.'.'.'.",
"'.'.'.'.'.'.'.'.'.'.'.'.'.9.: u.f.y.p X.g.h.j.w.{ [ w . # 5.!._.'.'.'.'.'.'.'.'.'.'.'.'.'.'.'.'.'.'.",
"'.'.'.'.'.'.'.'.'.'.'.'.'.9.: y.=.( -.:.g.h.j.w.[ g e O E._.'.'.'.'.'.'.'.'.'.'.'.'.'.'.'.'.'.'.'.'.",
"'.'.'.'.'.'.'.'.'.'.'.'.'.E.7.f *.h e.-.g.h.j.w.[ h h + _.`.'.'.'.'.'.'.'.'.'.'.'.'.'.'.'.'.'.'.'.'.",
"'.'.'.'.'.'.'.'.'.'.'.'.'.'.z.9 =.X. .m e.3.t.i.[ ( ) . A z.'.'.'.'.'.'.'.'.'.'.'.'.'.'.'.'.'.'.'.'.",
"'.'.'.].^.^.].'.'.'.'.'.'.'.E.>.| -.& - | ` C.C.[ w 0 9 ; x !.'.'.'.'./.Q.Q./.'.'.'.'.'.'.'.'.'.'.'.",
"'.'.'.^.~.~.^.'.'.'.'.'.'.'.`.0.> f   . = g M E W 6 O * - = b v.'.'.'.Q.c.c.W.'.'.'.'.'.'.'.'.'.'.'.",
"'.'.XX(.~.~.).N._.'.'.'.'.'.`.9.#       O & * U ,X%X4   y ( 9 b l.'.'.`.Q.M.M.N._.'.'.'.'.'.'.'.'.'.",
"'.`. X(.(.(.N.b./.'.'.'.'.'.'.z.x .     o * 9 L 2X:XP 4 t ) g * n v.'.'.`.W.M.N._.'.'.'.'.'.'.'.'.'.",
"'./.b. XXXXX}.b./.'.'.'.'.'.].~.n.+ o o d [ ' R 1X<X*XI , y h r + S `.'.'.'.'.'.'.'.'.'.'.'.'.'.'.'.",
"'.`./.W.W.W.W./.`.'.'.'.'.XX].~.n.> g ` -.X.] R ;X-X<X;XY M [ ( r 4.'.'.'.'.'.'.'.'.'.'.'.'.'.'.'.'.",
"'.'.'.Q.M.M.Q.'.'.'.'.'.'..X(.~.~.B.. 0 g g L 1X<X*X-X1XY M g & S _.'.'.'.'.'.'.'.'.'.'.'.'.'.'.'.'.",
"'.'.'.`.`.`.`.'.'.'.'.'.`.M.W.XXXXXXQ.n . P >X2X<X*X-X1X=XP $ q.`.'.'.'.'.'.'.'.'.'.'.'.'.'.'.'.'.'.",
"'.'.'.'.'.'.'.'.'.'.'.'.`.Q.W.}.}.}.W.x.< P >X<X;X*X&X&X:X$X$ q.^.^.^.'.'.'.'.'.'.'.'.'.'./.Q./.`.'.",
"'.'.'.'.'.'.'.'.'.'.'.'.'.'./.b.b.b.c.c.< $X>X>X3X;X&X&X-X$X$ q.~.~.~.^.'.'.'.'.'.'.'.'.`.M.b.b./.'.",
"'.'.'.'.'.'.'.'.'.'.'.'.'.'.`./././././.u 4 T @.C 5 6 C @.6   2 l 5..XQ.W.`.'.'.'.'.'.'.'./././.`.'.",
"'.'.'.'.'.'.'.'.'.'.'.'.'.'.'.'.'.'._.5.H.4XJ.I.A., O 9 v ; 1 , 1 l 6.W.W.`.'.'.'.'.'.'.'.'.'.'.'.'.",
"'.'.'.'.'.'.'.'.'.'.'.'.'.'.'.'.'.`.S k Z.K.H.H.~ ,     - X B , , , < 7._.'.'.'.'.'.'.'.'.'.'.'.'.'.",
"'.'.'./.W.W./.'.'.'.'.'.'.'.'.'.'.`.  * e 0 u N N ,     # . 7 +   O + n _.'.'.'.'.'.'.'.'.'.'.'.'.'.",
"'.'.'.Q.M.M.Q.'.'.'.'.'.'.'.'.'.'.`.. 8 B 8 8 N 3 N X @ @ @ @ @ @ @ + b _.'.'.'.'.'.'.'.'.'.'.'.'.'.",
"'.'.'.`.`.`.`.'.'.'.'.'.'.'.'.'.'.'.3 [.tXwX7XJ.H V l G G G G G G G V ,._.'.'.'.'.'.'.'.'.'.'.'.'.'.",
"'.'.'.'.'.'.'.'.'.'.'.'.'.'.'.'.'.'._.`.XXXXXX`._._._._._._._._._._._._.'.'.'.'.'.'.'.'.'.'.'.'.'.'.",
"'.'.'.'.'.'.'.'.'.'.'.'.'.'.'.'.'.'.'.'.'.'.'.'.'.'.'.'.'.'.'.'.'.'.'.'.'.'.'.'.'.'.'.'.'.'.'.'.'.'.",
"'.'.'.'.'.'.'.'.'.'.'.'.'.'.'.'.'.'.'.'.'.'.'.'.'.'.'.'.'.'.'.'.'.'.'.'.'.'.'.'.'.'.'.'.'.'.'.'.'.'.",
"'.'.'.'.'.'.'.'.'.'.'.'.'.'.'.'.'.'.'.'.'.'.'.'.'.'.'.'.'.'.'.'.'.'.'.'.'.'.'.'.'.'.'.'.'.'.'.'.'.'.",
"'.'.'.'.'.'.'.'.'.'.'.'.'.'.'.'.'.'.'.'.'.'.'.'.'.'.'.'.'.'.'.'.'.'.'.'.'.'.'.'.'.'.'.'.'.'.'.'.'.'.",
"'.'.'.'.'.'.'.'.'.'.'.'.'.'.'.'.'.'.'.'.'.'.'.'.'.'.'.'.'.'.'.'.'.'.'.'.'.'.'.'.'.'.'.'.'.'.'.'.'.'."
};
