/* XPM */
static char *_a1da5d7f099442de81fc21b1c567bc0GKGbWEGLmLAyBtq2[] = {
/* columns rows colors chars-per-pixel */
"50 50 226 2 ",
"   c #030101",
".  c #0C0402",
"X  c #0C0807",
"o  c #0D0B0C",
"O  c #130400",
"+  c #130A06",
"@  c #1C0A04",
"#  c #140C0B",
"$  c #1B0F0B",
"%  c #1A0404",
"&  c #070B17",
"*  c #1B1514",
"=  c #1C140F",
"-  c #280902",
";  c #320A02",
":  c #3C0901",
">  c #370700",
",  c #23130A",
"<  c #2B160D",
"1  c #291709",
"2  c #3B150C",
"3  c #361609",
"4  c #221514",
"5  c #2B1C1A",
"6  c #231B19",
"7  c #301D19",
"8  c #38210D",
"9  c #3B211C",
"0  c #281522",
"q  c #37262B",
"w  c #0D132C",
"e  c #4A0C01",
"r  c #450E03",
"t  c #520D01",
"y  c #5A0E01",
"u  c #4D1404",
"i  c #491509",
"p  c #451708",
"a  c #551307",
"s  c #4A1A15",
"d  c #5C1C17",
"f  c #650E01",
"g  c #690200",
"h  c #780E01",
"j  c #631102",
"k  c #6A1102",
"l  c #641808",
"z  c #751202",
"x  c #7B1400",
"c  c #741B03",
"v  c #771414",
"b  c #45260E",
"n  c #58260A",
"m  c #4A2C16",
"M  c #552812",
"N  c #553113",
"B  c #5B3715",
"V  c #772305",
"C  c #6A3A16",
"Z  c #673715",
"A  c #793E1C",
"S  c #69310C",
"D  c #411F39",
"F  c #711723",
"G  c #482B2B",
"H  c #522B26",
"J  c #543534",
"K  c #522A33",
"L  c #6E421B",
"P  c #784518",
"I  c #7F4A21",
"U  c #684737",
"Y  c #674322",
"T  c #1F2547",
"R  c #2D254D",
"E  c #0A1A6A",
"W  c #291966",
"Q  c #282E78",
"!  c #4D2552",
"~  c #542666",
"^  c #613571",
"/  c #49464A",
"(  c #5B5456",
")  c #664743",
"_  c #745552",
"`  c #6C426D",
"'  c #7C6A66",
"]  c #831500",
"[  c #8C1700",
"{  c #8B1A02",
"}  c #951B01",
"|  c #9C1B00",
" . c #901500",
".. c #8E1106",
"X. c #BA0600",
"o. c #AC1E01",
"O. c #A51E04",
"+. c #B71A00",
"@. c #972503",
"#. c #802015",
"$. c #812104",
"%. c #AA2500",
"&. c #AB2606",
"*. c #B32400",
"=. c #B52B00",
"-. c #BA2A02",
";. c #B4330C",
":. c #E30201",
">. c #C32E02",
",. c #C73502",
"<. c #DC3D03",
"1. c #D33801",
"2. c #E43F00",
"3. c #824D1E",
"4. c #804513",
"5. c #88511F",
"6. c #95541F",
"7. c #BF5512",
"8. c #854B22",
"9. c #8D5321",
"0. c #955A23",
"q. c #9A5C24",
"w. c #965721",
"e. c #8F4E38",
"r. c #AD5125",
"t. c #9F6025",
"y. c #A36226",
"u. c #AB6428",
"i. c #BA692B",
"p. c #BD702C",
"a. c #D74B09",
"s. c #D64809",
"d. c #CF5211",
"f. c #E54102",
"g. c #EA4302",
"h. c #F55B0B",
"j. c #E65715",
"k. c #D96E18",
"l. c #F6630E",
"z. c #F96A12",
"x. c #FD7515",
"c. c #F57B1D",
"v. c #FB7919",
"b. c #EA6F19",
"n. c #E55B22",
"m. c #C5752D",
"M. c #CA6838",
"N. c #DD7437",
"B. c #DD7438",
"V. c #D77E34",
"C. c #E3742C",
"Z. c #F67B21",
"A. c #E37B39",
"S. c #E97F38",
"D. c #E07638",
"F. c #F17F32",
"G. c #EC6028",
"H. c #BE5347",
"J. c #8B6654",
"K. c #8D7A7C",
"L. c #AE7073",
"P. c #C66948",
"I. c #DB8333",
"U. c #D68132",
"Y. c #E58935",
"T. c #EB8D37",
"R. c #ED853A",
"E. c #ED8C3A",
"W. c #E48437",
"Q. c #FF8332",
"!. c #FF8C36",
"~. c #F38C3A",
"^. c #FD8B3A",
"/. c #F48437",
"(. c #FF9037",
"). c #F59139",
"_. c #FC953A",
"`. c #FF993B",
"'. c #F3892E",
"]. c #B58873",
"[. c #EF8941",
"{. c #E98B4B",
"}. c #F38D42",
"|. c #FC9443",
" X c #FE9A45",
".X c #F69845",
"XX c #EE8955",
"oX c #E5996B",
"OX c #E8A27D",
"+X c #E5AA7D",
"@X c #F3AD7F",
"#X c #1A3696",
"$X c #282A8C",
"%X c #0A25B5",
"&X c #142DB7",
"*X c #1231B2",
"=X c #2539B9",
"-X c #2F3AA5",
";X c #0925C2",
":X c #1424CE",
">X c #1937CB",
",X c #0625D3",
"<X c #0A2AD3",
"1X c #1636D8",
"2X c #213FC4",
"3X c #0227F6",
"4X c #9F7D83",
"5X c #A07D82",
"6X c #BA8D8B",
"7X c #B5969F",
"8X c #AD8E95",
"9X c #B29FAC",
"0X c #BEA7B2",
"qX c #F2AC87",
"wX c #EEBA8B",
"eX c #F6B585",
"rX c #E9B58A",
"tX c #CBB8BA",
"yX c #D4BBBA",
"uX c #ECBBA4",
"iX c #E3C596",
"pX c #E5C698",
"aX c #FCC38D",
"sX c #D9C7C8",
"dX c #E8D8D7",
"fX c #ECE1DF",
/* pixels */
"`.`.`.`.`.`.`.`.`.`.`.~.A.N.A.~._.`.`.`.`.`.`.`.`.`.`.`.`.`.`.`.`.`.`.`.`.`.`.`.`.`.`.`.`.`.`.`.`.`.",
"`.`.`.`.`.`.`.`.`.`.`.`.~.A.N.B.~.`.`.`.`.`.`.`.`.`.`.`.`.`.`.`.`.`.`.`.`.`.`.`.`.`.`.`.`.`.`.`.`.`.",
"`.`.`.`.`.`.`.`.`.`.`.`.`.~.R.~._.`.`.`.`.`.`.`.`.`.`.`.`.`.`.`.`.`.`.`.`.`.`.`.`.`.`.`.`.`.`.`.`.`.",
"`.`.`.`.`.`.`.`.`.`.`.`.`.`.`.`.`.`.`.`.`.`.`.`.`.`.`.`.`.`.`.`.`.`.`.`.`.`.`.`.`.`.`.`.`.`.`.`.`.`.",
"`.`.`.`.`.`.`.`.`.`.`.`.`.`.`.`.`.`.`.`.`.`.`.`.`.`.`.`.`.`.`.`.`.`.`.`.`.`.`.`.`.`.`.`.`.`.`.`.`.`.",
"`.`.`.`.`.`.`.`.`.`.`.`.`.`.`.`.`.`.`.`.`.`.`.`.`.`.`.`.`.`.`.`.`.`.`.`.`.`.`.`.`.`.(.!.!.!.(.`.`.`.",
"`.`.`.`.`.`.`.`.`.`.`.`.`.`.`.`.`.`.`.`.`.`.I.Y.`.`.`.`.`.`.`.`.`.`.`.`.`.`.`.`.`.(.Q.Q.Q.Q.!.`.`.`.",
"`.`.`.`.`.!.!.!.!.!.!.(.`.`.`.`.`._._._._.I.Z 5.I.Y.`.`.`.`.`.`.`.`.`.`.`.`.`.`.!.^.|.|.|.|.~.S.).`.",
"`.`.`.`._.Q.Q.Q.Q.Q.^.^.~.`.`.`.T.m.m.m.m.b f : O C U.`.`.`.`.`.`.`.`.`.`.`.`.`././.}.}.}.}.R.S.).`.",
"`.`.`. X|.Q.Q.Q.Q.^. XR.A._.`.`.m., , , , y X.g : u B `.`.`.`.`.`.`.`.`.`.`.`.`.S.N.B.B.B.B.R.`.`.`.",
"`.`.`.~.R.^._._._.|. XR.A._.`.y.i o.:.:.% t | ] ] j N `.`.`.`.`.`.`.`.`.`.`.`.`.~.R.R.R.R.R.~.`.`.`.",
"`.`.`.R.A.}.|.|.|.|.|.R.A._.`.I.6.r | +.X.] } O.[ ] c C _.).N N p._.`.`.`.`.`.`.`.`.`.`.`.`.`.`.`.`.",
"`.`.`._.~.A.A.A.A.A.A.R._.`.`.u.8 , 2 z +.o.l p 2 a ] { 8 8 } } n y.`.`.`.`.`.`.`.`.`.`.`.`.`.`.`.`.",
"`.`.`.`._.R.R.R.R.R.R.~.`.`._.q.; { < 2 x a 2 < i k z ] %.{ ] x k n u.R.~.`.`.`.`.`.`.`.`.`.`.`.`.`.",
"`.`.`.`.`.`.`.`.`.`.`.`.`.`._.q.- l < , { i < < 2 k | =.>.} > f e Z i.B.A._.`.`.`.`.`.`.`.`.`.`.`.`.",
"`.`.`.`.`.`.`.`.`.`.`.`.`.`._.0.@ s ' _ V U ' e.V @.,.,.] e ; r Z p.~.~.~.`.`.`.`.`.`.`.`.`.`.`.`.`.",
"`.`.`.`.`.`.`.`.`.`.`.`.`.`._.p.M d dXK.M _ tXqXG.f.<.*.z ; k ; y.`.`.`.`.`.`.`.`.`.`.`.`.`.`.`.`.`.",
"`.`.`.`.`.`.`.`.`.`.`.`.Y.U.Y.T.y.4 sX* %.2 K.fXqXa.a.<.%.] x 2 w.T.`.`.`.`.`.`.`.`.`.`.`.`.`.`.`.`.",
"`.`.`.`.`.`.`.`.`.`.`.Y.L o Y 3.; #.sXq &.s K.dXqXn.n.a.a.-.2.@.; 5._.`.`.`.`.`.`.`.`.`.`.`.`.`.`.`.",
"`.`.`.`.`.`.`.`.`.`.`.B o / ( 2 f v 0X9X&.L.7XtXuXXXn.n.s.f.*.d.n 9.`.`.`.`.`.`.`.`.`.`.`.`.`.`.`.`.",
"`.`.`.`.`.`.`.`.`.`.`.N & & ) {.<.<.&.&.oX@XqXeXwXwXXXn.n.a.f.l.c.P y.`.`.`.`.`.`.`.`.`.`.`.`.`.`.`.",
"`.`.`.`.`.`.`.`.`.`.`._.3.+ 5 J.+XqXeXpXpXpXpXiXwXOX{.c.n.a.f.g.l.v.S 3.`.`.`.`.`.`.`.`.`.`.`.`.`.`.",
"`.`.`.`.`.`.`.`.`.`.`.`.Y.V.I = 9 _ aXeXpXiXJ.].OXoX{.x.Z.n.-.<.l.v.N 3.`.`.`.`.`.`.`.`.`.`.`.`.`.`.",
"`.`.`.`.`.`.`.`.`.`.`.`.`._.Y.m.q.= G ) rXeX+XoXoXM.d.x.x.Z.] 1.g.h.k.P B `.`.`.`.`.`.`.`.`.`.`.`.`.",
"`.`.`.`.`.`.`.`.`.`.`.`.`.`.`._.Y.0.0.7 U U J.e.r.;.-.a.x.v.d.&.1.h.x.A 1 `.`.`.`.`.`.`.`.`.`.`.`.`.",
"`.`.`.`.`.`.`.`.`.`.`.`.`.`.`.`.`.`.T.9.3.P m a x | o.-.x.z.'.;.%.s.z.7.P t.`.`.`.`.`.`.`.`.`.`.`.`.",
"`.`.`.`.`.`.`.`.`.`.`.`.`.`.`.`.~.R.R.).`.).C e x [ | -.x.x.l.1.{ %.h.z.d.b `.`.`.`.`.`.`.`.`.`.`.`.",
"`.`.`.`.`.`.`.`.`.`.`.`.`.`.`.`.R.A.A.~.`.).5.u ] [ ] -.x.c.<.| f @.h.h.,.b `.`.`.`.`.`.`.`.`.`.`.`.",
"`.`.`.`.`.`.`.`.`.`.`.`.`.`.`.`._._._.`.`._.m.N : x @.s.v.b.x %   > =.,.@.5.`.`.`.`.`.`.`.`.`.`.`.`.",
"`.`.`.(.!.!.(.`.`.`.`.`.`.`.`.`.`.`.`.`.`.).L . :  .,.x.c.>.O     : =.V 3 W.~.`.`.`.`.`.`.`.`.`.`.`.",
"`.`.`.!.Q.Q.!.`.`.`.`.`.`.`.`.`.`.`.`.`.T.b , a D #X=X=X-XF . , t %.<.V 3 N.R.`.`.`.`.`.`.`.`.`.`.`.",
"`.`. X^.Q.Q./.S.).`.`.`.`.`.`.`.`.`._.Y., y i T #X1X3X:Xv O.z 2 + V u 3.R.D.D.S.).`.`.`.`.`.`.`.`.`.",
"`._.}.^.^.^.S.B.~.`.`.`.`.`.`.(.(.(.W.Z a { K $X>X,X;X>X$XF 2 @   - @ 3._.R.A.S.).`.`.`.`.`.`.`.`.`.",
"`.~.B.}. X X[.B.~.`.`.`.`.`.(.Q.Q.C.1 , f z q &X,X&X>X<X0 + .         3.`.`.`.`.`.`.`.`.`.`.`.`.`.`.",
"`._.~.R.R.R.R.~._.`.`.`.`. X(.Q.Q.C.. a } K Q <X,X&X1X:Xj z t O     L I.`.`.`.`.`.`.`.`.`.`.`.`.`.`.",
"`.`.`.R.A.A.R.`.`.`.`.`.`.|.^.Q.Q.F.A r [ R *X<X%X&X>X=Xh o.=.x t - q._.`.`.`.`.`.`.`.`.`.`.`.`.`.`.",
"`.`.`._._._._.`.`.`.`.`._.A.R.|.|.|.E.P u T %X;X%X&X2X=X! #.=.| j n m.`.`.`.`.`.`.`.`.`.`.`.`.`.`.`.",
"`.`.`.`.`.`.`.`.`.`.`.`._.R.R.[.[.W.I 8.+ w ! ~ W E Q ^ ` s r e S i.!.`.`.`.`.`.`.`.`.`.`.~.R.~._.`.",
"`.`.`.`.`.`.`.`.`.`.`.`.`.`.~.B.M.A 5 + 4 + n $.: # H H.P._ ( 5 r.Q.Q.!.`.`.`.`.`.`.`.`._.A.B.B.~.`.",
"`.`.`.`.`.`.`.`.`.`.`.`.`.`._.V.9.$ G , J $ , +   4 ) 4X5X6X6XH 8.V.|.R.R._.`.`.`.`.`.`.`.~.~.~._.`.",
"`.`.`.`.`.`.`.`.`.`.`.`.`.`._.0.+ <     G # $ +   + 9 J J l k j - 8.}.R.R._.`.`.`.`.`.`.`.`.`.`.`.`.",
"`.`.`.`.`.`.`.`.`.`.`.`.`.`._.q.+ X X X X X X X . 5 G < 7 * 7 6 o A N.R.`.`.`.`.`.`.`.`.`.`.`.`.`.`.",
"`.`.`.~.R.R.~.`.`.`.`.`.`.`._.0.4 J J J J J J J 5 5 J ) 7X8XyXtX/ I R._.`.`.`.`.`.`.`.`.`.`.`.`.`.`.",
"`.`.`.R.A.A.R.`.`.`.`.`.`.`.`.).Y.E.E.E.E.E.E.E.Y.T.E.E..X.X X.XE.).`.`.`.`.`.`.`.`.`.`.`.`.`.`.`.`.",
"`.`.`._._._._.`.`.`.`.`.`.`.`.`.`.`.`.`.`.`.`.`.`.`.`.`.`.`.`.`.`.`.`.`.`.`.`.`.`.`.`.`.`.`.`.`.`.`.",
"`.`.`.`.`.`.`.`.`.`.`.`.`.`.`.`.`.`.`.`.`.`.`.`.`.`.`.`.`.`.`.`.`.`.`.`.`.`.`.`.`.`.`.`.`.`.`.`.`.`.",
"`.`.`.`.`.`.`.`.`.`.`.`.`.`.`.`.`.`.`.`.`.`.`.`.`.`.`.`.`.`.`.`.`.`.`.`.`.`.`.`.`.`.`.`.`.`.`.`.`.`.",
"`.`.`.`.`.`.`.`.`.`.`.`.`.`.`.`.`.`.`.`.`.`.`.`.`.`.`.`.`.`.`.`.`.`.`.`.`.`.`.`.`.`.`.`.`.`.`.`.`.`.",
"`.`.`.`.`.`.`.`.`.`.`.`.`.`.`.`.`.`.`.`.`.`.`.`.`.`.`.`.`.`.`.`.`.`.`.`.`.`.`.`.`.`.`.`.`.`.`.`.`.`.",
"`.`.`.`.`.`.`.`.`.`.`.`.`.`.`.`.`.`.`.`.`.`.`.`.`.`.`.`.`.`.`.`.`.`.`.`.`.`.`.`.`.`.`.`.`.`.`.`.`.`."
};
