/* XPM */
static char *b4007d141dad482189e4cd3445c47a43SnhUtocRhF8xrSQz[] = {
/* columns rows colors chars-per-pixel */
"50 50 189 2 ",
"   c #3C4F34",
".  c #2B5A3C",
"X  c #2B5933",
"o  c #385E31",
"O  c #3B5E3D",
"+  c #1C6C3C",
"@  c #1F7634",
"#  c #177B34",
"$  c #1D7B36",
"%  c #19753B",
"&  c #157E3D",
"*  c #1B7A3A",
"=  c #236033",
"-  c #22663B",
";  c #256D34",
":  c #316D33",
">  c #3D6B33",
",  c #35613F",
"<  c #217635",
"1  c #297735",
"2  c #247B35",
"3  c #297B35",
"4  c #377237",
"5  c #3B7437",
"6  c #3C7638",
"7  c #337C39",
"8  c #397F39",
"9  c #4F4B2F",
"0  c #56452E",
"q  c #435435",
"w  c #4A5531",
"e  c #545435",
"r  c #5F5435",
"t  c #525C35",
"y  c #525B39",
"u  c #5A5C33",
"i  c #6F462E",
"p  c #63492F",
"a  c #7E4C2F",
"s  c #625F38",
"d  c #6E5A38",
"f  c #635331",
"g  c #735538",
"h  c #426332",
"j  c #4E6637",
"k  c #436A35",
"l  c #4B6B35",
"z  c #556336",
"x  c #526E37",
"c  c #5C6A37",
"v  c #576338",
"b  c #417638",
"n  c #4A7439",
"m  c #6B6032",
"M  c #796A38",
"N  c #066E47",
"B  c #077547",
"V  c #097545",
"C  c #0B7C46",
"Z  c #02734B",
"A  c #057D4E",
"S  c #117B42",
"D  c #017751",
"F  c #027A54",
"G  c #2C6240",
"H  c #874C2F",
"J  c #924F38",
"K  c #935038",
"L  c #9A5539",
"P  c #874A36",
"I  c #AD5F3C",
"U  c #A45B3B",
"Y  c #B0603C",
"T  c #148335",
"R  c #1B8436",
"E  c #1A8937",
"W  c #17803E",
"Q  c #1C843C",
"!  c #1D8B3B",
"~  c #1C913C",
"^  c #1B9B3E",
"/  c #238237",
"(  c #268639",
")  c #248C3A",
"_  c #2A8E3B",
"`  c #33843A",
"'  c #39803A",
"]  c #318C3B",
"[  c #25923C",
"{  c #2D953D",
"}  c #2F983D",
"|  c #30943D",
" . c #31993F",
".. c #1AA13F",
"X. c #09824E",
"o. c #138142",
"O. c #198741",
"+. c #168947",
"@. c #1A8C42",
"#. c #118749",
"$. c #118D4E",
"%. c #159544",
"&. c #1D9444",
"*. c #139D44",
"=. c #1E9C46",
"-. c #149249",
";. c #1B9449",
":. c #179A4D",
">. c #1B9D4A",
",. c #058155",
"<. c #068659",
"1. c #098C5A",
"2. c #0B8A54",
"3. c #0E9056",
"4. c #0D945C",
"5. c #0F9A5F",
"6. c #119455",
"7. c #169F50",
"8. c #109659",
"9. c #109B5E",
"0. c #288C41",
"q. c #248C44",
"w. c #378C4D",
"e. c #249342",
"r. c #2A9442",
"t. c #239944",
"y. c #2F9940",
"u. c #359342",
"i. c #3C9346",
"p. c #359B43",
"a. c #3A9C45",
"s. c #329D4E",
"d. c #3D9E49",
"f. c #2E9E51",
"g. c #329F51",
"h. c #16A246",
"j. c #16AB44",
"k. c #1AAB46",
"l. c #15A44D",
"z. c #1BA44A",
"x. c #15AA49",
"c. c #1AAD4A",
"v. c #17B246",
"b. c #18B745",
"n. c #18BB45",
"m. c #16B54B",
"M. c #19B44B",
"N. c #17BE4C",
"B. c #19BD4F",
"V. c #16A551",
"C. c #14A855",
"Z. c #14A65F",
"A. c #16AD5D",
"S. c #17B350",
"D. c #18B556",
"F. c #1ABD55",
"G. c #17B05C",
"H. c #18B55A",
"J. c #23AC4A",
"K. c #3EA04B",
"L. c #129E60",
"P. c #13A261",
"I. c #16A960",
"U. c #419446",
"Y. c #43924A",
"T. c #48934A",
"R. c #419F4E",
"E. c #42A14D",
"W. c #46A453",
"Q. c #4AA454",
"!. c #4DA659",
"~. c #50A75B",
"^. c #52A95D",
"/. c #65AE61",
"(. c #1AC246",
"). c #1BC847",
"_. c #18C04B",
"`. c #19C34B",
"'. c #1DCD4D",
"]. c #1CCC4B",
"[. c #1ED24B",
"{. c #1ED44A",
"}. c #1FD649",
"|. c #1DD04C",
" X c #1ED549",
".X c #1FD848",
"XX c #1BC253",
"oX c #1CC751",
"OX c #1BC353",
/* pixels */
"^.^.^.^.^.!.~.!.!.!.!.!.!.!.Q.Q.Q.W.W.W.W.W.R.f.s.E.E.E.E.K.K.K.d.d.r.J.J.J.r.a.a.p.a.p.p.p.p. . . .",
"} } } } { ( { } } { { } } } } } } } { { { } ( D.%.} } } } } } } } } %.D.F.D.! } } { { } } } } } } } ",
") ~ ~ ) } } } } } } } } } | l ` } } } } } } } [ { } } } } } } } { { { [ [ [ { } } } } } } { { } } } ",
"x.'.'.B.( } } } } } } } } 7 I j } } } } } } } } } } } } } } } { { { } } } } } } } } } } } { { } } } ",
"~ ;.&.&.{ } } } } } { e.e.0.6 ] } } } } } } } } } } } } } } } { { { } } } } } 7 ] } } } } } { { } } ",
"} } } } } } } } } &._.[.].].m.e.} } } } } } } { { } } } } } } } } } } } } } | L s } } } } } } } } } ",
"} } } } } } } } } k.}.}.}.}.}.=.} } } } } } } } { } } } } } } } } } } } } } ] l b } } { { { } } } } ",
"} } } } } } } } } -.F.F.OXOXD.! } } E.a.} } } } } } } } { { } } } } } } } } } } } e.M._.N._.c.r.g d ",
"} } } } } } } } } #.L.P.P.P.L.o.} } a.Q.{ } } } } } } _ _ } } } { e.t.{ } } } } } c.}.}.}.[..X;.e u ",
"} } } } } } { { { & D <.<.,.D ( } } } } } } } } } } } } } } } } >.|.[.k.} } } } } %.oXoX'.'.OX! } } ",
"} } } } } } } { } } $ q y   ( } } } } } } } } } } } } } } } } } ;.F.H.-.} } } } } $.P.P.P.P.P.o.} } ",
"} } } { } } } { { { # > l : T { } } } } } } } } } } } } { } } } +.P.P.$.{ { { } } & ,.1.1.<.F Q { } ",
"} } { { } } } } } } { [ [ { { } } } } } } } } } } } } { } } } } V ,.<.B { { { } } { % . G . w.R.{ { ",
"} } } { { =.M.z.{ } } } } } { { } } } } } } } } } } } } { { } } ) Z Z W { { } } } [ # t m h T { { } ",
"{ E.} } { m.|.|.&.} } } } ) j.~ } } } } { { } } } } } } } } } } ) w f ( } } } } } { [ [ ) [ { } } } ",
"p.{ } } { 8.I.P.O.} } } } ) 7.@.} } } } } _ { } } } } } } } } } { [ [ { } } } } } } } } } } } } } } ",
"} _ } } { 2.L.5.Q } } } } } { } { { } } } } } } } } } } } } } } } } } } } } } } } } } } { { } } } } ",
"{ { } } { Z D D Q } } } } } } } _ { } } } } } } } } } } } } } } } } } } } } } } } } } { _ } } } } } ",
"{ { } } } * O - { } } } { } } } } } } } } } } } } } } } } | c 8 r.=.z.z.z.e.} { } } } } } } } } } } ",
"} } } } } ( > 1 { } } { } } } } } } } } } } } } } } } } } 7 L z z.}.}.}.}.].e.{ { } } } } } } } } } ",
"} } ] 7 } } } } } } } } { { } } } } y.y.} } } } } } } } } { ` { j.}.}..X}.[.&.} } } } } } } } } } } ",
"} } v U ` } } ( } } } } } } } } } } s.s.} } } } } { { } } } } { 6.Z.P.G.A.P.Q } } } } { { { } } } } ",
"} } 8 z _ } } } { } } } } } } } } } f.z.c.=.} } } { { } } } } } C 4.9.P.4.1.R } } } } { { _ { } } } ",
"} } } } } } } } } } } } } } } } } } ) '.}._.[ } } } } } } } } } Q V Z D N S { } } } } ! b.(.n.~ } } ",
"} } } } } } } } } } } } } } } } } } ! P.I.9.( } } } } } } } } } { ; a H 9 ! } } } } } ! V.C.C.@.} } ",
"} } } { { } } } } } } } } } } } } } Q 9.L.4.) } { } } } } } } } [ ! R R E ) {  .u.} } } { { { } } } ",
"} } { { } } } } } } } } } } } } } } Q D F Z _ ( { } } } } } } } } } } } } }  .T.i.} } } } } } } } } ",
"{ e.=.=.=.e.} } } } } ` x ] } } } } { + , % } } } ) ) } } } } } { } } } } } } u. .} } } } | x ' } } ",
">.}.}.}.[.].e.} } } } k Y 4 } } } } { 3 h / } } { *.S.( } } } } { } } } } } } } } } } } } 7 L v } } ",
"k.}.}..X}.}.&.} } } } | 5 | } } } } } } { } } } } [ &.{ } } } } } { } } } } } } } } } } }  .q.m.m.t.",
"$.A.A.H.H.Z.O.} } } } } } } } } } } } } } } } } } } } } } } } } } } } } } } } } } { _ } } } h.'.'.&.",
"o.4.P.P.9.4.& } } } } } } } } } } } } } } } } } } } } } } } } } } } } } } } } } } { { } } { $.P.P.+.",
"Q B D F Z V { } } } } } } } } } } } } }  .u.{ } } } } } } { { } } } } } } } } } } } } } } { X.4.4.o.",
"{ < i a 0 ! { } } } } } } } } } } } } } i.U.i.} } } } } } } { { } } } } } } } } } } } } } { V D D W ",
"{ R $ 2 R ! { } } } } ) ^ ....[ } } } } } { } } } } } } } } } } } { { } ` M 8 } } } } } } } / e q { ",
"} } } { } } } } } } } ! F.XXXX%.} } } } } } } } } } { e.{ } } } } { { { 4 J k } } } } } } } [ 2 / { ",
"{ { } } } } } } } } } { [ [ [ { } } } } } } } { } e.B.].c.{ } } } } } } } _ { } } } } { { } } } { } ",
"{ _ } } } } } } } { _ { } } } } } } } } } } } _ { ! OXOXl.{ } } } } } } } } } } } } } _ { } } } } } ",
"{ { } } } { { } } { { } } } } { e.e.r.} } } } { { ! P.P.8.) } } } } } } } } } } } } } } { { } } } { ",
"} } } } ) v.~ } } } } } } } l.`.[.].`.l.} } } } } & 1.1.A { } } } } } } } } } } } } } { { } } } { { ",
"} } } } ) :.@.} } } } } } { _.[..X}.}.].e.} } } } ( D F V { } } } } } } } } } } } } } { { { } } { { ",
"} } } } } } }  .u.} } } { ) C.F.F.OXXXC.( { { } } { o p 2 } } } } } d.d.} } } } } } } } } } } } } } ",
"} } } } } } } T.Y.} } { _ { 3.P.P.P.P.4.Q { } } } { ) ( [ } } } } } p.Q.{ } } } } } } } } } } } } } ",
"n c } } } } } {  .} } } } } V D <.<.F B { } } } } } } { u.{ } } ) ~ { } } } } } } { } } } } } } { { ",
"r P | } } } } } } } } } } } { = y y X { } } } } } } } U.u.i.} { l.l.{ } } } } } } { { } } } } } _ { ",
"{ ] } } } { } } } } { } } } ! @ k h < E } } } } } } } { i.} } } [ [ } } } } } 6 ' } } } { { } } { } ",
"} } a./.u.( } } } { } } } } } { [ [ { } { { { } } } } } } } } } } } } } } } { K d } } { { { } } } } ",
"} } {  .{ } { } } } { } } } } } } y.} } { { { } } } } } } } { ( ) { } } } } | 6 8 } } { { } } { } } ",
"} } } } } } } } } } } } { { } } s.g.} } } } } } } { { } } ) j.].).*.( { } } } } } } } } }  .Y.{ } } ",
"} } } } } } } } } } } { _ } } } g.s.} } } } } } } { { } } ) :.7.l.-.{ { { } } } } } } } } { Y.i.} } "
};
