/* XPM */
static char *_d6e6bf66cba4ade8eb35bca104db725fBmtIGjktEsiTmpF[] = {
/* columns rows colors chars-per-pixel */
"50 50 238 2 ",
"   c #2D120D",
".  c #35170E",
"X  c #391911",
"o  c #18280B",
"O  c #13350A",
"+  c #2E230F",
"@  c #441E12",
"#  c #481F14",
"$  c #4C2314",
"%  c #4A2417",
"&  c #542616",
"*  c #5B2B15",
"=  c #5C2A18",
"-  c #582817",
";  c #5F3015",
":  c #632D19",
">  c #6C2B16",
",  c #633019",
"<  c #6B341B",
"1  c #74331D",
"2  c #7A3A1E",
"3  c #782D10",
"4  c #552F24",
"5  c #553A31",
"6  c #7A3927",
"7  c #6D3826",
"8  c #781616",
"9  c #1A460D",
"0  c #1E5110",
"q  c #225810",
"w  c #304B0E",
"e  c #296912",
"r  c #307B15",
"t  c #774B1E",
"y  c #506E15",
"u  c #766812",
"i  c #7C4D30",
"p  c #5C713F",
"a  c #7C6032",
"s  c #5B4A18",
"d  c #772552",
"f  c #741954",
"g  c #5F4D41",
"h  c #715247",
"j  c #756D50",
"k  c #6D6663",
"l  c #7C7676",
"z  c #796C69",
"x  c #9B0303",
"c  c #980505",
"v  c #8A1110",
"b  c #A30202",
"n  c #AD0302",
"m  c #BA0303",
"M  c #A61A0C",
"N  c #883814",
"B  c #8E2C10",
"V  c #A23A16",
"C  c #B73618",
"Z  c #BB300D",
"A  c #853B22",
"S  c #953F23",
"D  c #AA3329",
"F  c #C90808",
"G  c #D70202",
"H  c #C92A05",
"J  c #DB3804",
"K  c #C73308",
"L  c #E53A03",
"P  c #C23131",
"I  c #924715",
"U  c #B95314",
"Y  c #AF4711",
"T  c #884227",
"R  c #964425",
"E  c #9E4526",
"W  c #8C5137",
"Q  c #AC4D2A",
"!  c #A54928",
"~  c #A85A37",
"^  c #AE4F32",
"/  c #987C3C",
"(  c #BE7E35",
")  c #DC4909",
"_  c #DE5805",
"`  c #DB4A15",
"'  c #ED4B03",
"]  c #E64607",
"[  c #F14D04",
"{  c #EC5303",
"}  c #E95606",
"|  c #F35202",
" . c #F15A02",
".. c #D56E0B",
"X. c #EF6A02",
"o. c #E86504",
"O. c #F36703",
"+. c #E77104",
"@. c #F3700B",
"#. c #C75C33",
"$. c #D1562B",
"%. c #CA6639",
"&. c #DD7436",
"*. c #DD7438",
"=. c #D4743B",
"-. c #E47B39",
";. c #E97F38",
":. c #E47937",
">. c #E76A31",
",. c #A8366E",
"<. c #9D1776",
"1. c #D7045D",
"2. c #D4026D",
"3. c #C42079",
"4. c #925A50",
"5. c #B85958",
"6. c #A84949",
"7. c #9B6548",
"8. c #A36748",
"9. c #AF7052",
"0. c #8D7F79",
"q. c #8D726A",
"w. c #85576A",
"e. c #D35252",
"r. c #E55E55",
"t. c #D67647",
"y. c #CF7057",
"u. c #CF7261",
"i. c #D96B5D",
"p. c #368718",
"a. c #528617",
"s. c #4A8A15",
"d. c #669715",
"f. c #6B8318",
"g. c #54AC19",
"h. c #66A817",
"j. c #428C25",
"k. c #779B3C",
"l. c #49AD27",
"z. c #69B63B",
"x. c #4FC830",
"c. c #72AB56",
"v. c #7C8F4A",
"b. c #60C241",
"n. c #77CA6E",
"m. c #8B880B",
"M. c #949304",
"N. c #9A9908",
"B. c #868514",
"V. c #9C9119",
"C. c #AF861C",
"Z. c #A3A303",
"A. c #AAAA05",
"S. c #B7B705",
"D. c #8B892F",
"F. c #AEAE2D",
"G. c #CC881B",
"H. c #C0BF07",
"J. c #D99027",
"K. c #E79825",
"L. c #ED853A",
"P. c #EF893A",
"I. c #FF8432",
"U. c #FF8D36",
"Y. c #F38C3A",
"T. c #FD8C3A",
"R. c #F38637",
"E. c #F7903A",
"W. c #FC953B",
"Q. c #FF993B",
"!. c #FF9037",
"~. c #DEA32E",
"^. c #E7A32A",
"/. c #E7AA35",
"(. c #D7D603",
"). c #C9C90B",
"_. c #8F974F",
"`. c #B39154",
"'. c #A8BC5F",
"]. c #969473",
"[. c #B18B6F",
"{. c #ADAC79",
"}. c #DE974F",
"|. c #CF8D52",
" X c #EC8945",
".X c #F48D43",
"XX c #F08947",
"oX c #EA954A",
"OX c #FD9442",
"+X c #F59A46",
"@X c #FD9B43",
"#X c #F49A4A",
"$X c #FB9E49",
"%X c #F49349",
"&X c #E48851",
"*X c #E89A59",
"=X c #F39D54",
"-X c #F9A04D",
";X c #EBA758",
":X c #F5A357",
">X c #C98164",
",X c #DD996D",
"<X c #CB9174",
"1X c #E69C67",
"2X c #DDA262",
"3X c #DCB270",
"4X c #E8A669",
"5X c #F0AA70",
"6X c #D2AB50",
"7X c #8BC56D",
"8X c #E9C957",
"9X c #EDC54A",
"0X c #F0DC67",
"qX c #E8D873",
"wX c #F1E279",
"eX c #EFE174",
"rX c #D7C969",
"tX c #960298",
"yX c #900F89",
"uX c #A80693",
"iX c #9E01A1",
"pX c #A403A5",
"aX c #B22685",
"sX c #D21382",
"dX c #9E9994",
"fX c #979187",
"gX c #B6998D",
"hX c #AF9590",
"jX c #A4A29E",
"kX c #ACAC8E",
"lX c #BCBAB8",
"zX c #B1AFAF",
"xX c #E4A782",
"cX c #E9DD84",
"vX c #EEE182",
"bX c #F1E485",
"nX c #D2C998",
"mX c #CFCDCD",
/* pixels */
"Q.Q.Q.Q.Q.Q.Q.Q.Q.Q.Q.Y.-.&.-.Y.W.Q.Q.Q.Q.Q.Q.Q.Q.Q.Q.Q.Q.@X*XQ.Q.Q.Q.Q.Q.Q.Q.Q.Q.Q.Q.Q.Q.Q.Q.Q.Q.Q.",
"Q.Q.Q.Q.Q.Q.Q.Q.Q.Q.Q.Q.Y.-.&.*.Y.].].Q.Q.Q.Q.Q.Q.Q.Q.Q.@X>.$.$XQ.Q.Q.Q.Q.Q.Q.Q.Q.Q.Q.Q.Q.Q.Q.Q.Q.Q.",
"Q.Q.Q.Q.Q.Q.Q.Q.Q.Q.Q.Q.Q.Y.P.Y.+XD.m.kXQ.Q.Q.Q.Q.Q.Q.Q.L.{ ` @XQ.Q.Q.Q.Q.Q.Q.Q.Q.Q.Q.Q.Q.Q.Q.Q.Q.Q.",
"Q.Q.Q.Q.Q.Q.Q.Q.Q.Q.Q.Q.Q.Q.Q.Q.4XN.S.B.lXQ.Q.Q.Q.Q.Q.#X .X.} =XQ.Q.Q.Q.Q.Q.Q.Q.Q.Q.Q.Q.Q.Q.Q.Q.Q.Q.",
"Q.Q.Q.Q.Q.Q.Q.Q.Q.Q.Q.Q.Q.Q.Q.Q.2XA.(.(.D.Q.Q.Q.Q.Q.Q.;.X.X.O.>XQ.Q.Q.Q.Q.Q.Q.Q.Q.Q.Q.Q.Q.Q.Q.Q.Q.Q.",
"Q.Q.Q.Q.Q.Q.Q.Q.Q.Q.Q.Q.Q.Q.Q.Q.*XH.(.(.).kXQ.Q.Q.Q.-X=.O.X.X.t.Q.Q.Q.Q.Q.Q.Q.Q.Q.Q.!.U.U.U.!.Q.Q.Q.",
"Q.Q.Q.Q.Q.Q.Q.Q.Q.Q.Q.Q.Q.Q.Q.Q.4X_.).S.(.F.-XQ.Q.Q.P.O.{  .@.=.Q.Q.Q.Q.Q.Q.Q.Q.Q.!.I.I.I.I.U.Q.Q.Q.",
"Q.Q.Q.Q.Q.U.U.U.T.U.U.!.Q.Q.Q.Q.;X).S.N.A.S.{.Q.Q.-X@.{ ' | O.&.Q.Q.Q.Q.Q.Q.Q.Q.U.T.OXOXOXOXY.;.E.Q.",
"Q.Q.Q.Q.W.I.I.I. X#. X%XY.W.Q.Q.;X).Z.Z.M.D.].Q.Q.,X{ { ' ' #.t.Q.Q.Q.Q.Q.Q.Q.Q.R.R..X.X.X.XL.;.E.Q.",
"Q.Q.Q.@XOXI.I.I.XXb n D gXE.Q.Q.;XA.Z.A.M.N.D.-XQ.%.' { ' | #.hXQ.Q.Q.Q.Q.Q.Q.Q.;.t.*.*.*.*.L.Q.Q.Q.",
"Q.Q.Q.Y.L.T.W.W.=Xx G G F 5.:XQ.;XV.Z.Z.M.Z.m.+XQ.$.) { [ | [ <XQ.Q.Q.Q.Q.Q.@X%Xi.,.&XP.P.P.Y.Q.Q.Q.",
"Q.Q.Q.P.-..X%X%X%X^ F F n m ^ =X@X|.B.M.Z.Z.M.#X$X8.) ' | | ` <XQ.Q.Q.Q.@X%Xr.sXuX5.Q.Q.Q.Q.Q.Q.Q.Q.",
"Q.Q.Q.W.Y.-.-.-.-.,X6.m b c v ~ #X+X/ M.Z.Z.N.=X:X%.{ ' | [ y.Q.Q.Q.@X;.e.3.2.2.<.oXQ.Q.Q.Q.Q.Q.Q.Q.",
"Q.Q.Q.Q.W.P.L.L.L.L.P m b b c x %.Q.}.N.A.N.B.$X@X` { ' [ t.Q.Q.Q.&XaXpXpXuX2.1.u.Q.Q.Q.Q.Q.Q.Q.Q.Q.",
"Q.Q.Q.Q.Q.Q.Q.Q.Q.Q.gXm b x b x M *X2XV.A.M.D.Q.Q.$.{ ' >.@XQ.Q.9.yXiXtXtXuX1.e.@XQ.Q.Q.Q.Q.Q.Q.Q.Q.",
"Q.Q.Q.Q.Q.Q.Q.Q.Q.Q.Q.4.c 8 x b x 6.&X|.m.M.D.Q.Q.u.{ ] =XQ.@X5.tXtXtXiXyX,.>.@XQ.Q.Q.Q.Q.Q.Q.Q.Q.Q.",
"Q.Q.Q.Q.Q.Q.Q.Q.Q.Q.Q.Q.9.h c b x v ,X-.kXN.j Q.Q.1X) >X-XQ.i.pXtXiXpXiX,.oX@XQ.Q.Q.Q.Q.Q.Q.Q.Q.Q.Q.",
"Q.Q.Q.Q.Q.Q.Q.Q.Q.Q.Q.Q.Q.4X9.V c c 0.Q.Q.kXj Q.Q.:X#.5X@Xi.yXtXtXuXyX5..XQ.Q.Q.Q.Q.Q.Q.Q.Q.Q.Q.Q.Q.",
"Q.Q.Q.Q.Q.Q.Q.Q.Q.Q.Q.Q.Q.Q.Q.*X4.6 6 gXdXhXa gXgX<X~ <X>Xd f d w.*X#X@XQ.Q.Q.Q.Q.Q.Q.Q.Q.Q.Q.Q.Q.Q.",
"Q.Q.Q.Q.Q.Q.Q.Q.Q.Q.Q.Q.Q.Q.Q.,XI 2 N N N V Y V 1 2 & @ A - $ @ 0.Q.Q.Q.Q.Q.Q.Q.Q.Q.Q.Q.Q.Q.Q.Q.Q.Q.",
"Q.Q.Q.Q.Q.Q.Q.Q.Q.Q.Q.Q.Q.Q.5XJ./././././.^.^.C @ V U U U Y N 3 [.=XQ.Q.Q.Q.Q.Q.Q.Q.Q.Q.Q.Q.Q.Q.Q.Q.",
"Q.Q.Q.Q.Q.Q.Q.Q.Q.Q.Q.Q.Q.Q.<Xo.+.+.+.o.} ] J B @ U K.K.K.^.^.^.~.Y.Q.Q.Q.Q.Q.Q.Q.Q.Q.Q.Q.Q.Q.Q.Q.Q.",
"Q.Q.Q.Q.Q.Q.Q.Q.Q.Q.Q.Q.Q.Q.u.H H Z C D Q ~ ~ < $ M H J L L ] ] } &XQ.Q.Q.Q.Q.Q.Q.Q.Q.Q.Q.Q.Q.Q.Q.Q.",
"Q.Q.Q.Q.Q.Q.Q.Q.Q.Q.Q.Q.Q.Q.:X4X9.|.rXqXcXvX8Xu * a `.`.`.8.~ V C xXQ.Q.Q.Q.Q.Q.Q.Q.Q.Q.Q.Q.Q.Q.Q.Q.",
"Q.Q.Q.Q.Q.Q.Q.Q.Q.Q.Q.Q.Q.Q.Q.-X( ^.0XbXbXvX8Xf., u /.eXbXbXqX`.4XQ.Q.Q.Q.Q.Q.Q.Q.Q.Q.Q.Q.Q.Q.Q.Q.Q.",
"Q.Q.Q.Q.Q.Q.Q.Q.Q.Q.Q.Q.Q.Q.Q.Q._.G.9X0XwX0X/.f.= y C.8XwXwX9XF.Q.Q.Q.Q.Q.Q.Q.Q.Q.Q.Q.Q.Q.Q.Q.Q.Q.Q.",
"Q.Q.Q.Q.Q.Q.Q.Q.Q.Q.Q.Q.Q.Q.Q.Q._.d...K./.J.V.y * s d.C.~./.G.k.Q.Q.Q.Q.Q.Q.Q.Q.Q.Q.Q.Q.Q.Q.Q.Q.Q.Q.",
"Q.Q.Q.Q.Q.Q.Q.Q.Q.Q.Q.Q.Q.Q.Q.Q.[.g.h.d.h.h.y ; 3 ; y g.h.h.h.v.Q.Q.Q.Q.Q.Q.Q.Q.Q.Q.Q.Q.Q.Q.Q.Q.Q.Q.",
"Q.Q.Q.Q.Q.Q.Q.Q.Q.Q.Q.Q.Q.Q.Q.Q.|.t a.g.s.w 2 B Z - X y a.a.f.7.Q.Q.Q.Q.Q.Q.Q.Q.Q.Q.Q.Q.Q.Q.Q.Q.Q.Q.",
"Q.Q.Q.!.U.U.!.Q.Q.Q.Q.Q.Q.Q.Q.Q.#X< : t , X N H J 3 @ 2 2 < : |.Q.Q.Q.Y.P.P.Y.Q.Q.Q.Q.Q.Q.Q.Q.Q.Q.Q.",
"Q.Q.Q.U.I.I.U.Q.Q.Q.Q.Q.Q.Q.Q.Q.+X< & $ @ $ C ) _ K * T < * & oXQ.Q.Q.L.&.&.L.Q.Q.Q.Q.Q.Q.Q.Q.Q.Q.Q.",
"Q.Q.@XT.I.I.R.;.E.Q.Q.Q.Q.Q.Q.Q.+X: $ $ @ 3 _ o.+._ Y < : $ $ oXQ.Q.Q.E.P.:.:.;.E.Q.Q.Q.Q.Q.Q.Q.Q.Q.",
"Q.W..XT.T.T.;.*.Y.Q.Q.Q.Q.Q.Q.!.%X= @ $ $ * B I I 3 > * = X & oXQ.Q.Q.Q.W.L.-.;.E.Q.Q.Q.Q.Q.Q.Q.Q.Q.",
"Q.Y.*..X@X@X X*.Y.Q.Q.Q.Q.Q.!.I..X= @ : T 1 @   @ . = R 1 $ & oXQ.Q.Q.Q.Q.Q.Q.Q.Q.Q.Q.Q.Q.Q.Q.Q.Q.Q.",
"Q.W.Y.L.L.L.L.Y.E.Q.Q.Q.Q.@X!.I..X= R ! A E Q A 1 ! Q A R Q = oXQ.Q.Q.Q.Q.Q.Q.Q.Q.Q.Q.Q.Q.Q.Q.Q.Q.Q.",
"Q.Q.Q.P.-.-.P.Q.Q.Q.Q.Q.Q.OXT.I.%X4 1 5 5 % : S E > $ 5 g < = oXQ.Q.Q.Q.Q.Q.Q.Q.Q.Q.Q.Q.Q.Q.Q.Q.Q.Q.",
"Q.Q.Q.W.E.E.W.Q.Q.Q.Q.Q.E.-.L.OX:X7 1 dXmXfXfXz g 0.].mXlXi - oXQ.Q.Q.Q.Q.Q.Q.Q.Q.Q.Q.Q.Q.Q.Q.Q.Q.Q.",
"Q.Q.Q.Q.Q.Q.Q.Q.Q.Q.Q.Q.W.P.L. X1XW 1 k l k l z k l k l z T - oXU.U.U.Q.Q.Q.Q.Q.Q.Q.Q.Q.Q.Y.P.Y.W.Q.",
"Q.Q.Q.Q.Q.Q.Q.Q.Q.Q.Q.Q.Q.Q.Y.*.*.7.1 dXlXdXlXzXjXlXjXlXzXi % XXI.I.I.U.Q.Q.Q.Q.Q.Q.Q.Q.E.-.*.*.Y.Q.",
"Q.Q.Q.Q.Q.Q.Q.Q.Q.Q.Q.Q.Q.Q.W.Y.Y.8.1 h q.h q.j h q.h q.q.6 6 =XOXOXOXP.L.W.Q.Q.Q.Q.Q.Q.Q.Y.Y.Y.W.Q.",
"Q.Q.Q.Q.Q.Q.Q.Q.Q.Q.Q.Q.Q.Q.Q.Q.Q.8.^ Q ! ! ! ! Q Q ! E Q ^ T *X.X.X.XL.L.W.Q.Q.Q.Q.Q.Q.Q.Q.Q.Q.Q.Q.",
"Q.Q.Q.Q.Q.Q.Q.Q.Q.Q.Q.Q.Q.Q.Q.Q.Q.4.& 1 R R T 6 A R ! E A = 4 &X*.*.*.P.Q.Q.Q.Q.Q.Q.Q.Q.Q.Q.Q.Q.Q.Q.",
"Q.Q.Q.Y.L.L.Y.Q.Q.Q.Q.Q.Q.Q.Q.Q.Q.8.  . . + o o o o + + X   i  XP.P.P.E.Q.Q.Q.Q.Q.Q.Q.Q.Q.Q.Q.Q.Q.Q.",
"Q.Q.Q.P.-.-.P.Q.Q.Q.Q.Q.Q.Q.Q.Q.Q.$X}.a 9 O O O O O O 9 p [.$XQ.Q.Q.Q.Q.Q.Q.Q.Q.Q.Q.Q.Q.Q.Q.Q.Q.Q.Q.",
"Q.Q.Q.W.E.E.W.Q.Q.Q.Q.Q.Q.Q.Q.Q.Q.Q.Q.3Xp.q 9 0 e 9 9 e 7XQ.Q.Q.Q.Q.Q.Q.Q.Q.Q.Q.Q.Q.Q.Q.Q.Q.Q.Q.Q.Q.",
"Q.Q.Q.Q.Q.Q.Q.Q.Q.Q.Q.Q.Q.Q.Q.Q.Q.Q.Q.;Xl.r 0 e p.e q p.'.Q.Q.Q.Q.Q.Q.Q.Q.Q.Q.Q.Q.Q.Q.Q.Q.Q.Q.Q.Q.Q.",
"Q.Q.Q.Q.Q.Q.Q.Q.Q.Q.Q.Q.Q.Q.Q.Q.Q.Q.Q.#X7Xj.p.l.l.l.p.c.6XQ.Q.Q.Q.Q.Q.Q.Q.Q.Q.Q.Q.Q.Q.Q.Q.Q.Q.Q.Q.Q.",
"Q.Q.Q.Q.Q.Q.Q.Q.Q.Q.Q.Q.Q.Q.Q.Q.Q.Q.Q.Q.Q.c.l.x.x.x.z.:XQ.Q.Q.Q.Q.Q.Q.Q.Q.Q.Q.Q.Q.Q.Q.Q.Q.Q.Q.Q.Q.Q.",
"Q.Q.Q.Q.Q.Q.Q.Q.Q.Q.Q.Q.Q.Q.Q.Q.Q.Q.Q.Q.Q.5X-Xn.b.nX@XQ.Q.Q.Q.Q.Q.Q.Q.Q.Q.Q.Q.Q.Q.Q.Q.Q.Q.Q.Q.Q.Q.Q.",
"Q.Q.Q.Q.Q.Q.Q.Q.Q.Q.Q.Q.Q.Q.Q.Q.Q.Q.Q.Q.Q.Q.Q.Q.+XQ.Q.Q.Q.Q.Q.Q.Q.Q.Q.Q.Q.Q.Q.Q.Q.Q.Q.Q.Q.Q.Q.Q.Q.Q."
};
