/* XPM */
static char *a7269cf8cd5d453594512fbbc0d48ac3q4V5uiWGQdXzNxut[] = {
/* columns rows colors chars-per-pixel */
"50 50 126 2 ",
"   c #FF993B",
".  c #FE983B",
"X  c #F68F3A",
"o  c #E17838",
"O  c #DC7237",
"+  c #DF7637",
"@  c #F48D3A",
"#  c #FC963B",
"$  c #F28B3A",
"%  c #EF8839",
"&  c #F08939",
"*  c #FA943A",
"=  c #FF963A",
"-  c #FF9037",
";  c #FF8F37",
":  c #FF9339",
">  c #FF983A",
",  c #FF983B",
"<  c #FF9138",
"1  c #FF8533",
"2  c #FF8432",
"3  c #FE8C36",
"4  c #FD973B",
"5  c #FF8C35",
"6  c #FF8934",
"7  c #FF9238",
"8  c #FF8E36",
"9  c #FF8C38",
"0  c #FF9340",
"q  c #FF9341",
"w  c #F48A3D",
"e  c #E87F38",
"r  c #F7903A",
"t  c #FF993D",
"y  c #FF953C",
"u  c #FF8634",
"i  c #FF8231",
"p  c #FF8433",
"a  c #FF8938",
"s  c #F98B39",
"d  c #FE973A",
"f  c #F78635",
"g  c #F48238",
"h  c #F48D42",
"j  c #F48E43",
"k  c #EE873E",
"l  c #FF9A42",
"z  c #FF9643",
"x  c #FF8735",
"c  c #FF9845",
"v  c #EC843E",
"b  c #E47B38",
"n  c #F9923A",
"m  c #E87E38",
"M  c #DD7337",
"N  c #DD7438",
"B  c #EB8339",
"V  c #F48D3D",
"C  c #EF863E",
"Z  c #FB8E3E",
"A  c #FF903E",
"S  c #FF9A47",
"D  c #EB833E",
"F  c #E27938",
"G  c #F8923A",
"H  c #EF8739",
"J  c #E67D3A",
"K  c #F48E42",
"L  c #F89345",
"P  c #EC843D",
"I  c #E77F38",
"U  c #FA933A",
"Y  c #FB953B",
"T  c #E2793A",
"R  c #EE873A",
"E  c #FD963B",
"W  c #DD7437",
"Q  c #E67D38",
"!  c #E67E38",
"~  c #F18A39",
"^  c #EB8239",
"/  c #FF993C",
"(  c #FF8C36",
")  c #FE8B35",
"_  c #EC8439",
"`  c #DB7137",
"'  c #EA8139",
"]  c #FF993E",
"[  c #FF9A43",
"{  c #FF8D39",
"}  c #F48034",
"|  c #E07638",
" . c #FB963D",
".. c #F48F42",
"X. c #FA8C3D",
"o. c #FF8A38",
"O. c #EF7F38",
"+. c #FF9539",
"@. c #DF7638",
"#. c #F08940",
"$. c #FF9947",
"%. c #EF8840",
"&. c #FF8332",
"*. c #FF8D36",
"=. c #ED853C",
"-. c #FF9A41",
";. c #FF903B",
":. c #F68234",
">. c #FE983D",
",. c #FA9443",
"<. c #EF7D36",
"1. c #FA933B",
"2. c #E77F3A",
"3. c #FF9644",
"4. c #EF8941",
"5. c #ED863D",
"6. c #FE8E37",
"7. c #FF8E3A",
"8. c #F1873C",
"9. c #FD9439",
"0. c #F4843A",
"q. c #EC853D",
"w. c #E47937",
"e. c #EF873A",
"r. c #F48C3A",
"t. c #F8913A",
/* pixels */
"                      . X o O + @                                                                   ",
"                        # $ % & *                                                                   ",
"                                                                                                    ",
"                                                                                                    ",
"                                                                                  = - ; ; ; :       ",
"          > > > > > > ,                                                         , < 1 2 2 2 3 4 .   ",
"        = 5 6 6 6 6 6 7                                                       , 8 9 0 q q q w e r   ",
"      t y u i i i p a s X 4                                                   d f g h j j j k e r   ",
"      l z x i i i a c v b n                                                   4 m M N N N N B 4 .   ",
"      V C Z A A A q S D F G                                                   . @ % % % % % X       ",
"      H J K L L L L L P I U                                                                         ",
"      Y @ J T T T T T R U .                                                                         ",
"        Y H B B B B B X                                           * & H $ #                         ",
"                                  . 4 E 4                         @ + W b n                         ",
"                                  r e Q B *                       Y @ @ X 4                         ",
"                                  r e ! B *                                                         ",
"                                  . 4 4 4                                                           ",
"                                                                                                    ",
"                                                                                                    ",
"                                                                                                    ",
"                                                                                                    ",
"                                                                                                    ",
"                                                                                                    ",
"                                                                                                    ",
"                                                                                                    ",
"                              . ~ ^ ^ X                                                             ",
"                              4 B F F $                                                             ",
"                                * G G #                                                             ",
"      : ; ; :                                                         X H H X                       ",
"    / ( i i ) 4 .                                                     _ M ` ' 4 .                   ",
"  ] [ { i i } e r                                                     n H | | e r                   ",
"   ...X.o.o.O.W @           = 7 7 7 7 7 7 7 +.                          * B ! e r                   ",
"  @ @.#.$.$.%.W @           - &.&.&.&.&.&.&.*.                            4 4 4 .                   ",
"  * & =.D D =.& *       / -.;.i i i i i i i :._ n                                                   ",
"      H F F H           >.,.Z x x x x x x x <.W @                                                   ",
"      Y G G Y           1.2.C 3.3.3.3.3.3.3.C W @                                                   ",
"                        Y H =.4.4.4.4.4.4.4.5._ n           +.; ; ; ; +.                # $ H & *   ",
"                            & W W W W W W W _             > ; 2 2 2 2 6.4               n b W + @   ",
"                            * @ @ @ @ @ @ @ n           = 5 7.q q q q 8.B *             4 X @ @ Y   ",
"                                                        9.:.0.j j j j q.B *                         ",
"                                                        n w.M N N N N e.4                           ",
"      r.^ ^ r.                                          # $ % % % % % t.                            ",
"      H F F H                                                                                       ",
"      Y G G Y                                                                                       ",
"                                                                                                    ",
"                                                                                                    ",
"                                                                                                    ",
"                                                                                                    ",
"                                                                                                    ",
"                                                                                                    "
};
