/* XPM */
static char *c2ee286cadb74811c5143584c05e81027JRU9E52XKP8mWEh[] = {
/* columns rows colors chars-per-pixel */
"50 50 122 2 ",
"   c #533C37",
".  c #533F3E",
"X  c #59433F",
"o  c #564240",
"O  c #5C4645",
"+  c #5F4844",
"@  c #624C4A",
"#  c #6A4F48",
"$  c #704F47",
"%  c #6A564F",
"&  c #77594B",
"*  c #7A5949",
"=  c #6E5452",
"-  c #6E5852",
";  c #745757",
":  c #745957",
">  c #7B5A51",
",  c #775C59",
"<  c #795B5A",
"1  c #776159",
"2  c #7B615D",
"3  c #7E685E",
"4  c #855A3D",
"5  c #AA6D3C",
"6  c #DD7437",
"7  c #DD7438",
"8  c #E47937",
"9  c #E07638",
"0  c #E47B39",
"q  c #E97F38",
"w  c #82615B",
"e  c #8D675D",
"r  c #9D7557",
"t  c #9E775E",
"y  c #B07241",
"u  c #BF744A",
"i  c #BC7E4C",
"p  c #A77351",
"a  c #AC7A5B",
"s  c #B87F5B",
"d  c #866764",
"f  c #866A64",
"g  c #8B6C65",
"h  c #8C6D68",
"j  c #8A7167",
"k  c #8E746A",
"l  c #9C7464",
"z  c #9C7F65",
"x  c #93736D",
"c  c #937F6D",
"v  c #99786F",
"b  c #967570",
"n  c #977971",
"m  c #997B73",
"M  c #C77142",
"N  c #D17640",
"B  c #D97D41",
"V  c #E17F40",
"C  c #ED853A",
"Z  c #E48B3B",
"A  c #EF8839",
"S  c #F68334",
"D  c #FF8332",
"F  c #FF8D36",
"G  c #F3843A",
"H  c #F48C3A",
"J  c #FD8C3A",
"K  c #FF9037",
"L  c #F7913B",
"P  c #FC943A",
"I  c #FF993B",
"U  c #BD804D",
"Y  c #BF815F",
"T  c #978270",
"R  c #9D8375",
"E  c #BA8E6B",
"W  c #A68B72",
"Q  c #A28A79",
"!  c #A6907B",
"~  c #AB957D",
"^  c #B89C7A",
"/  c #CE8547",
"(  c #C5834F",
")  c #D98647",
"_  c #D78946",
"`  c #D98249",
"'  c #D68B4C",
"]  c #DA8E4D",
"[  c #C48353",
"{  c #D28F54",
"}  c #DB995B",
"|  c #E08E46",
" . c #EE8A41",
".. c #E0864C",
"X. c #F48E42",
"o. c #EE9443",
"O. c #E3934C",
"+. c #F49641",
"@. c #FD9443",
"#. c #F39844",
"$. c #F29946",
"%. c #F49844",
"&. c #F59844",
"*. c #F89A43",
"=. c #FF9A41",
"-. c #FF9A42",
";. c #FF9A43",
":. c #FF9845",
">. c #FF9947",
",. c #FF9A47",
"<. c #FF9847",
"1. c #E19553",
"2. c #E19852",
"3. c #CF9762",
"4. c #C89564",
"5. c #D29460",
"6. c #AC9780",
"7. c #AE9A81",
"8. c #B09D81",
"9. c #B3A084",
"0. c #B5A386",
"q. c #B5A486",
/* pixels */
"I I I I I I I I I I I I H 0 6 7 H I I I I I I I I I I I I I I I I I I I I I I I I I I I I I I I I I ",
"I I I I I I I I I I I I I H A H P I I I I I I I I I I I I I I I I I I I I I I I I I I I I I I I I I ",
"I I I I I I I I I I I I I I I I I I I I I I I I I I I I I I I I I I I I I I I I I I I I I I I I I I ",
"I I I I I I I I I I I I I I I I I I I I I I I I I I I I I I I I I I I I I I I I I I I I I I I I I I ",
"I I I I I I I I I I I I I I I I I I I I I I I I I I I I I I I I I I I I I I I I I I K F F F K I I I ",
"I I I I I I I I I I I I I I I I I I I I I I I I I I I I I I I I I I I I I I I I I K D D D D F I I I ",
"I I I I I F F F F F F K I I I I I I I I I I I I I I I I I I I I I I I I I I I I F J @.@.@.@.H q L I ",
"I I I I P D D D D D J J H I I I I I I I I I I I I I I I I I I I I I I I I I I I S G X.X.X.X.C q L I ",
"I I I -.@.D D D D J :.C 0 P I I I I I I I I I I I I I I I I I I I I I I I I I I q 6 7 7 7 7 C I I I ",
"I I I H C J P P P @.,.C 0 P I I I I I I I I I I I I I I I I I I I I I I I I I I H A A A A A H I I I ",
"I I I A 0 X.@.@.@.@.@.C 0 P I I I I I I I I I I I I I I I I I I I I I I I I I I I I I I I I I I I I ",
"I I I P H 0 0 0 0 0 0 A P I I I I I I I I I I I I I I I I I I I I I I I I I I I I I I I I I I I I I ",
"I I I I P A C C C C C H I I I I I I I I I I I I I I I I I I I I I P H A H I I I I I I I I I I I I I ",
"I I I I I I I I I I I I I I I I I I I I I I I I I I I I I I I I I H 7 7 0 P I I I I I I I I I I I I ",
"I I I I I I I I I I I I I I I I I L q 0 C P I I I I I I I I I I I P H H H I I I I I I I I I I I I I ",
"I I I I I I I I I I I I I I I I I L q 0 C P I I I I I I I I I I I I I I I I I I I I I I I I I I I I ",
"I I I I I I I I I I I I I I I I I I I I I I I I I I I I I I I I I I I I I I I I I I I I I I I I I I ",
"I I I I I I I I I I I I I I I I I I I I I I I I I I I I I I I I I I I I I I I I I I I I I I I I I I ",
"I I I I I I I I I I I I I I I I I I I I I I I I I I I I I I I I I I I I I I I I I I I I I I I I I I ",
"I I I I I I I I I I I I I I I I I I I I I I I I I I I I I I I I I I I I I I I I I I I I I I I I I I ",
"I I I I I I I I I I I I I I I I I I I I I I I I I I I I I I I I I I I I I I I I I I I I I I I I I I ",
"I I I I I I I I I I I I I I I I I I I I I I I I I I I I I I I I I I I I I I I I I I I I I I I I I I ",
"I I I I I I I I I I I I I I I I I I I I I I I I I I I I I I I I I I I I I I I I I I I I I I I I I I ",
"I I I I I I I I I I I I I I I I I I I I I I I $.2.3.} I I I I I I I I I I I I I I I I I I I I I I I ",
"I I I I I I I I I I I I I I I I I I I I I I ' E ^ 8.W / P I I I I I I I I I I I I I I I I I I I I I ",
"I I I I I I I I I I I I I I I I H C C H I I a v Q Q % 4 Z I I I I I I I I I I I I I I I I I I I I I ",
"I I I I I I I I I I I I I I I I C 0 0 H &.5.x n b g o   5 L I I I I I I I I I I I I I I I I I I I I ",
"I I I I I I I I I I I I I I I I P L  .O.4.~ ~ ~ R g O o & { $.I I I I I I I I I I I I I I I I I I I ",
"I I I K F F K I I I I I I I I I I +.a n ! 9.q.0.! f , R 7.~ z a &.I I H A A H I I I I I I I I I I I ",
"I I I F D D F I I I I I I I I I I | l x m R R k - = d m R 1 o X U I I A 6 6 C I I I I I I I I I I I ",
"I I -.J D D S q L I I I I I I I I [ x x x d < ; o @ h m Q 3 o . r *.I P A 9 9 q L I I I I I I I I I ",
"I P X.J J J q 7 H I I I I I I K K s h h x w , ; O @ f m 6.c @ O t o.I I P C 0 q L I I I I I I I I I ",
"I H 7 X.:.:. .7 H I I I I I K D D Y 2 O : < ; ; j T , 2 k @ o = 2 ] I I I I I I I I I I I I I I I I ",
"I P H C C C C H P I I I I -.K D D u e $ # w > w l g + * p 5 y ( 1.I I I I I I I I I I I I I I I I I ",
"I I I A 0 0 A I I I I I I @.J D D C V B ` ..N M ) ' i _ +.I I I I I I I I I I I I I I I I I I I I I ",
"I I I P P P P I I I I I P 0 C :.:.:.:.:.:.:.C 7 H I I I I I I I I I I I I I I I I I I I I I I I I I ",
"I I I I I I I I I I I I P A C  . . . . . . .C A P I I I I I I F F F F I I I I I I I I I I H A H P I ",
"I I I I I I I I I I I I I I H 7 7 7 7 7 7 7 A I I I I I I I F D D D D F I I I I I I I I P 0 7 7 H I ",
"I I I I I I I I I I I I I I P H H H H H H H P I I I I I I F J @.@.@.@.G C P I I I I I I I H H H P I ",
"I I I I I I I I I I I I I I I I I I I I I I I I I I I I I S G X.X.X.X.C C P I I I I I I I I I I I I ",
"I I I I I I I I I I I I I I I I I I I I I I I I I I I I P 8 6 7 7 7 7 A I I I I I I I I I I I I I I ",
"I I I H C C H I I I I I I I I I I I I I I I I I I I I I I H A A A A A P I I I I I I I I I I I I I I ",
"I I I A 0 0 A I I I I I I I I I I I I I I I I I I I I I I I I I I I I I I I I I I I I I I I I I I I ",
"I I I P P P P I I I I I I I I I I I I I I I I I I I I I I I I I I I I I I I I I I I I I I I I I I I ",
"I I I I I I I I I I I I I I I I I I I I I I I I I I I I I I I I I I I I I I I I I I I I I I I I I I ",
"I I I I I I I I I I I I I I I I I I I I I I I I I I I I I I I I I I I I I I I I I I I I I I I I I I ",
"I I I I I I I I I I I I I I I I I I I I I I I I I I I I I I I I I I I I I I I I I I I I I I I I I I ",
"I I I I I I I I I I I I I I I I I I I I I I I I I I I I I I I I I I I I I I I I I I I I I I I I I I ",
"I I I I I I I I I I I I I I I I I I I I I I I I I I I I I I I I I I I I I I I I I I I I I I I I I I ",
"I I I I I I I I I I I I I I I I I I I I I I I I I I I I I I I I I I I I I I I I I I I I I I I I I I "
};
