/* XPM */
static char *bb5e26d8466a40a98941634bce64a22egF8tAYAcdmPyJ5l1[] = {
/* columns rows colors chars-per-pixel */
"50 50 160 2 ",
"   c #3C332D",
".  c #43352C",
"X  c #4B372B",
"o  c #44382F",
"O  c #4C3A2D",
"+  c #5E3C26",
"@  c #573F2A",
"#  c #413630",
"$  c #453933",
"%  c #4B3E36",
"&  c #4C4037",
"*  c #4E4239",
"=  c #524236",
"-  c #594535",
";  c #54453D",
":  c #57483F",
">  c #58493F",
",  c #65472D",
"<  c #6A4A2F",
"1  c #734E2E",
"2  c #7D4B2C",
"3  c #644D3C",
"4  c #6D4E39",
"5  c #7C5532",
"6  c #5B4C42",
"7  c #5F5146",
"8  c #625246",
"9  c #685646",
"0  c #6D5947",
"q  c #655549",
"w  c #68574B",
"e  c #66594B",
"r  c #6B5B4D",
"t  c #6F5E50",
"y  c #705F50",
"u  c #73604F",
"i  c #746454",
"p  c #796756",
"a  c #7A6857",
"s  c #7C6B5A",
"d  c #855537",
"f  c #8E5D32",
"g  c #905F39",
"h  c #A65C2C",
"j  c #976233",
"k  c #9F6531",
"l  c #92643A",
"z  c #9A613A",
"x  c #A26732",
"c  c #AE6532",
"v  c #AB6C35",
"b  c #B67034",
"n  c #BF7634",
"m  c #C6692D",
"M  c #C07734",
"N  c #C67A35",
"B  c #C37C3C",
"V  c #CB7C3E",
"C  c #D27536",
"Z  c #DD7437",
"A  c #D57837",
"S  c #D1773C",
"D  c #DD7438",
"F  c #E57934",
"G  c #E47B39",
"H  c #E97F38",
"J  c #846141",
"K  c #9B6D43",
"L  c #9F7249",
"P  c #8E6F50",
"I  c #816F5C",
"U  c #82715E",
"Y  c #987350",
"T  c #93765B",
"R  c #AF7440",
"E  c #AE7946",
"W  c #A7724A",
"Q  c #A9794C",
"!  c #B57A43",
"~  c #A37552",
"^  c #A17A55",
"/  c #857462",
"(  c #897764",
")  c #877864",
"_  c #8B7A66",
"`  c #8E7E69",
"'  c #967D65",
"]  c #907F6A",
"[  c #CF833F",
"{  c #D48137",
"}  c #DB8437",
"|  c #D5853D",
" . c #DB8639",
".. c #ED853B",
"X. c #E58C39",
"o. c #EE8939",
"O. c #F68334",
"+. c #FF8432",
"@. c #FF8D36",
"#. c #F3843A",
"$. c #F38C3A",
"%. c #FD8C3A",
"&. c #ED913C",
"*. c #FF9037",
"=. c #F5923B",
"-. c #FC953B",
";. c #FF993B",
":. c #BE824A",
">. c #AE865D",
",. c #BD8652",
"<. c #948067",
"1. c #94836C",
"2. c #9A866E",
"3. c #9D886E",
"4. c #978770",
"5. c #988770",
"6. c #978871",
"7. c #9B8A72",
"8. c #9F8F78",
"9. c #A58462",
"0. c #A08F77",
"q. c #A49073",
"w. c #A19078",
"e. c #A3937A",
"r. c #A29279",
"t. c #A2947B",
"y. c #A4947A",
"u. c #A5957C",
"i. c #A7977E",
"p. c #A6977D",
"a. c #A4947B",
"s. c #A7987E",
"d. c #A8987F",
"f. c #A8997F",
"g. c #CD8645",
"h. c #CE8746",
"j. c #CA8647",
"k. c #CB8748",
"l. c #D98A43",
"z. c #DE8B40",
"x. c #E08D41",
"c. c #EF8941",
"v. c #F48E43",
"b. c #F48E42",
"n. c #F48D42",
"m. c #F38D42",
"M. c #FF9341",
"N. c #FF9340",
"B. c #FF9643",
"V. c #F89345",
"C. c #FF9543",
"Z. c #FF9A42",
"A. c #FF9845",
"S. c #FF9A47",
"D. c #FF9A45",
"F. c #AA9A80",
"G. c #AB9D82",
"H. c #AC9D83",
"J. c #AEA086",
"K. c #B0A286",
/* pixels */
";.;.;.;.;.;.;.;.;.;.;.$.G Z G $.-.;.;.;.;.;.;.;.;.;.;.;.;.;.;.;.;.;.;.;.;.;.;.;.;.;.;.;.;.;.;.;.;.;.",
";.;.;.;.;.;.;.;.;.;.;.;.$.G Z Z $.;.;.;.;.;.;.;.;.;.;.;.;.;.;.;.;.;.;.;.;.;.;.;.;.;.;.;.;.;.;.;.;.;.",
";.;.;.;.;.;.;.;.;.;.;.;.;.$.o.$.-.;.;.;.;.;.;.;.;.;.;.;.;.;.;.;.;.;.;.;.;.;.;.;.;.;.;.;.;.;.;.;.;.;.",
";.;.;.;.;.;.;.;.;.;.;.;.;.;.;.;.;.;.;.;.;.;.;.;.;.;.;.;.;.;.;.;.;.;.;.;.;.;.;.;.;.;.;.;.;.;.;.;.;.;.",
";.;.;.;.;.;.;.;.;.;.;.;.;.;.;.;.;.;.;.;.;.;.;.;.;.;.;.;.;.;.;.;.;.;.;.;.;.;.;.;.;.;.;.;.;.;.;.;.;.;.",
";.;.;.;.;.;.;.;.;.;.;.;.;.;.;.;.;.;.;.;.;.;.;.;.;.;.;.;.;.;.;.;.;.;.;.;.;.;.;.;.;.;.*.@.@.@.*.;.;.;.",
";.;.;.;.;.;.;.;.;.;.;.;.;.;.;.;.;.;.;.;.;.;.;.;.;.;.;.;.;.;.;.;.;.;.;.;.;.;.;.;.;.*.+.+.+.+.@.;.;.;.",
";.;.;.;.;.@.@.@.@.@.@.*.;.;.;.;.;.;.;.;.;.;.;.;.;.;.;.;.;.;.;.;.;.;.;.;.;.;.;.;.@.%.M.M.M.M.$.H =.;.",
";.;.;.;.-.+.+.+.+.+.%.%.$.;.;.;.;.;.;.;.;.;.;.;.;.;.;.;.;.;.;.;.;.;.;.;.;.;.;.;.O.#.b.b.b.b...H =.;.",
";.;.;.Z.B.+.+.+.+.%.A...G -.;.;.;.;.;.;.;.;.;.;.;.;.;.;.;.;.;.;.;.;.;.;.;.;.;.;.H Z D D D D ..;.;.;.",
";.;.;.$...%.-.-.%.M.A...G -.;.;.;.;.;.;.;.;.;.;.;.;.;.;.;.;.;.;.;.;.;.;.;.;.;.;.$.o.o.o.o.o.$.;.;.;.",
";.;.;.o.G b.V.V.V.V.V...G -.;.;.;.;.;.;.;.;.=.l.h.h.h.x.=.;.;.;.;.;.;.;.;.;.;.;.;.;.;.;.;.;.;.;.;.;.",
";.;.;.-.$.G G G G G G o.-.;.;.;.;.;.;.;.;.&.k.T / ( / ^ j.=.;.;.;.;.;.;.;.;.;.;.;.;.;.;.;.;.;.;.;.;.",
";.;.;.;.-.o...........$.;.;.;.;.;.;.;.;.X.>.3.] _ 1.7.2.2.E X.;.;.-.$.o.$.;.;.;.;.;.;.;.;.;.;.;.;.;.",
";.;.;.;.;.;.;.;.;.;.;.;.;.;.;.;.;.;.;.;.[ 7.F.7.5.5.7.i.) - N ;.;.$.Z Z G -.;.;.;.;.;.;.;.;.;.;.;.;.",
";.;.;.;.;.;.;.;.;.;.;.;.;.;.;.;.;.=.G S W a 2.d.s.i.7.i 6 8 L l.&.-.$.$.$.;.;.;.;.;.;.;.;.;.;.;.;.;.",
";.;.;.;.;.;.;.;.;.;.;.;.;.;.;.;.;.=.V ~ ' U s ( 7.` t : 6 i / ^ :.=.;.;.;.;.;.;.;.;.;.;.;.;.;.;.;.;.",
";.;.;.;.;.;.;.;.;.;.;.;.;.;.;.;.-.z.9.5.w.2.( a p 8 6 r U 1.5.5.<.K =.;.;.;.;.;.;.;.;.;.;.;.;.;.;.;.",
";.;.;.;.;.;.;.;.;.;.;.;.;.;.;.;.X.Q 5.5.7.y.w.2.U i s 2.5.5.5.5.i o v ;.;.;.;.;.;.;.;.;.;.;.;.;.;.;.",
";.;.;.;.;.;.;.;.;.;.;.;.;.;.;.;.| Y t.d.G.i.w.7.7.5.5.7.5.5.5.i %   @ X.;.;.;.;.;.;.;.;.;.;.;.;.;.;.",
";.;.;.;.;.;.;.;.;.;.;.;.;.;.;.;.R u / 4.s.w.7.2.5.2.1.2.5./ r ; * *    .;.;.;.;.;.;.;.;.;.;.;.;.;.;.",
";.;.;.;.;.;.;.;.;.;.;.;.;.;.;.-.K t p s ` 1.` _ 1.1.1.5.w.i 6 6 i U q N ;.;.;.;.;.;.;.;.;.;.;.;.;.;.",
";.;.;.;.;.;.;.;.;.;.;.;.;.;.;.Q ` ( a i i w / i.5.5.5.i.( : ; / 7.5.5.P  .;.;.;.;.;.;.;.;.;.;.;.;.;.",
";.;.;.;.;.;.;.;.;.;.;.;.;.=.,.7.7.5.2.( i r a 4.s.F.8.a 6 : : s 5.i.d.I v &.;.;.;.;.;.;.;.;.;.;.;.;.",
";.;.;.;.;.;.;.;.;.;.;.;.=.j.q.0.5.5.5.5.` r r p / ( i 6 6 i i s a U / 6 5  .;.;.;.;.;.;.;.;.;.;.;.;.",
";.;.;.;.;.;.;.;.;.;.;.;.=.! 1.H.7.5.5.7.5.w 8 i i t 6 8 a ` 1.` / s r : 5 } ;.;.;.;.;.;.;.;.;.;.;.;.",
";.;.;.;.;.;.;.;.;.;.;.;.V 0 i 7.F.y.w.i.i : * r i w 6 / i.i.i.i.i.6.r : % j ;.;.;.;.;.;.;.;.;.;.;.;.",
";.;.;.;.;.;.;.;.;.;.;.;.B w i 1.5.d.i./ 6 ; 6 ` <.a r / 7.K.H.J.t./ 6 : $ f ;.;.;.;.;.;.;.;.;.;.;.;.",
";.;.;.;.;.;.;.;.;.;.;.;.B w U s a ( U 6 : r ( 5.w.5.1./ I 5.t./ w ; * : $ , =.;.;.;.;.;.;.;.;.;.;.;.",
";.;.;.*.@.@.*.;.;.;.;.;.B q / p a U r ; 7 ` 5.5.7.7.5.` i U ] 7 : % $ : $ . } ;.;.;.;.;.;.;.;.;.;.;.",
";.;.;.@.+.+.@.;.;.;.;.;. .l a i a i > ; e w.7.1.] 7.w./ q y s 8 : ; # % # X C ;.;.;.;.;.;.;.;.;.;.;.",
";.;.Z.%.+.+.O.H =.;.;.;.-. .J 0 i i * $ w U / w.d.d.w.q ; w s r : :   $ O 2 Z H =.;.;.;.;.;.;.;.;.;.",
";.-.b.%.%.%.H Z $.;.;.;.;.;.{ v 3 = #   w r r / 7./ r : * 8 i w : ; X 1 b A G H =.;.;.;.;.;.;.;.;.;.",
";.$.D m.A.A.c.Z $.;.;.;.;.;.*.+.F h 2 + 8 w i i s w : ; $   * : % < N ;.;.;.;.;.;.;.;.;.;.;.;.;.;.;.",
";.-.$.........$.-.;.;.;.;.Z.*.+.+.+.+.m 3 r i i s i 6 $ O k n M N X.;.;.;.;.;.;.;.;.;.;.;.;.;.;.;.;.",
";.;.;.o.G G o.;.;.;.;.;.;.V.%.+.+.+.+.O.c 4 9 w r e & < x =.;.;.;.;.;.;.;.;.;.;.;.;.;.;.;.;.;.;.;.;.",
";.;.;.-.-.-.-.;.;.;.;.;.-.G ..B.B.B.B.B.c.B z d g l f { X.;.;.;.;.;.;.;.;.;.;.;.;.;.;.;.;.;.;.;.;.;.",
";.;.;.;.;.;.;.;.;.;.;.;.-.o...c.c.c.c.c.c.c...o.-.;.;.;.;.;.;.@.@.@.@.;.;.;.;.;.;.;.;.;.;.$.o.$.-.;.",
";.;.;.;.;.;.;.;.;.;.;.;.;.;.$.Z Z Z Z Z Z Z o.;.;.;.;.;.;.;.@.+.+.+.+.@.;.;.;.;.;.;.;.;.-.G Z Z $.;.",
";.;.;.;.;.;.;.;.;.;.;.;.;.;.-.$.$.$.$.$.$.$.-.;.;.;.;.;.;.@.%.M.M.M.M.#...-.;.;.;.;.;.;.;.$.$.$.-.;.",
";.;.;.;.;.;.;.;.;.;.;.;.;.;.;.;.;.;.;.;.;.;.;.;.;.;.;.;.;.O.#.b.b.b.b.....-.;.;.;.;.;.;.;.;.;.;.;.;.",
";.;.;.;.;.;.;.;.;.;.;.;.;.;.;.;.;.;.;.;.;.;.;.;.;.;.;.;.-.G Z D D D D o.;.;.;.;.;.;.;.;.;.;.;.;.;.;.",
";.;.;.$.....$.;.;.;.;.;.;.;.;.;.;.;.;.;.;.;.;.;.;.;.;.;.;.$.o.o.o.o.o.-.;.;.;.;.;.;.;.;.;.;.;.;.;.;.",
";.;.;.o.G G o.;.;.;.;.;.;.;.;.;.;.;.;.;.;.;.;.;.;.;.;.;.;.;.;.;.;.;.;.;.;.;.;.;.;.;.;.;.;.;.;.;.;.;.",
";.;.;.-.-.-.-.;.;.;.;.;.;.;.;.;.;.;.;.;.;.;.;.;.;.;.;.;.;.;.;.;.;.;.;.;.;.;.;.;.;.;.;.;.;.;.;.;.;.;.",
";.;.;.;.;.;.;.;.;.;.;.;.;.;.;.;.;.;.;.;.;.;.;.;.;.;.;.;.;.;.;.;.;.;.;.;.;.;.;.;.;.;.;.;.;.;.;.;.;.;.",
";.;.;.;.;.;.;.;.;.;.;.;.;.;.;.;.;.;.;.;.;.;.;.;.;.;.;.;.;.;.;.;.;.;.;.;.;.;.;.;.;.;.;.;.;.;.;.;.;.;.",
";.;.;.;.;.;.;.;.;.;.;.;.;.;.;.;.;.;.;.;.;.;.;.;.;.;.;.;.;.;.;.;.;.;.;.;.;.;.;.;.;.;.;.;.;.;.;.;.;.;.",
";.;.;.;.;.;.;.;.;.;.;.;.;.;.;.;.;.;.;.;.;.;.;.;.;.;.;.;.;.;.;.;.;.;.;.;.;.;.;.;.;.;.;.;.;.;.;.;.;.;.",
";.;.;.;.;.;.;.;.;.;.;.;.;.;.;.;.;.;.;.;.;.;.;.;.;.;.;.;.;.;.;.;.;.;.;.;.;.;.;.;.;.;.;.;.;.;.;.;.;.;."
};
